<svg width="167" height="158" viewBox="0 0 167 158" fill="none" xmlns="http://www.w3.org/2000/svg">
<path d="M134.309 76.3867C150.454 83.9388 158.527 94.8438 158.527 109.102C158.527 121.862 153.514 132.441 143.488 140.84C130.142 152.038 111.945 157.637 88.8984 157.637C71.776 157.637 55.9232 154.382 41.3398 147.871C27.082 141.491 16.2096 132.604 8.72266 121.211C3.31901 112.943 0.617188 106.172 0.617188 100.898C0.617188 98.8802 3.22135 97.1549 8.42969 95.7227C13.7031 103.145 23.0781 109.492 36.5547 114.766C40.6562 109.297 46.1901 101.517 53.1562 91.4258C60.1224 81.3346 65.5586 73.4896 69.4648 67.8906C73.3711 62.2266 77.2773 56.7904 81.1836 51.582C89.8424 40.0586 97.362 31.3346 103.742 25.4102C105.695 23.457 108.658 23.3919 112.629 25.2148C113.671 25.6706 114.517 26.1914 115.168 26.7773C109.764 32.2461 102.473 43.1185 93.293 59.3945C99.2826 60.8268 104.523 61.543 109.016 61.543C113.508 61.543 117.967 61.0547 122.395 60.0781C126.822 59.0365 130.858 57.5391 134.504 55.5859C142.902 51.224 147.102 45.8529 147.102 39.4727C147.102 27.0378 137.629 18.4766 118.684 13.7891C111.262 11.901 103.84 10.957 96.418 10.957C89.0612 10.957 82.1276 11.4779 75.6172 12.5195C69.1068 13.4961 63.3125 15.0586 58.2344 17.207C47.0365 21.9596 41.4375 28.6979 41.4375 37.4219C41.4375 44.7786 44.1719 50.9635 49.6406 55.9766C43.7161 62.2917 38.9961 65.4492 35.4805 65.4492C31.444 65.4492 27.668 63.2682 24.1523 58.9062C20.5716 54.4141 18.7812 49.4987 18.7812 44.1602C18.7812 38.8216 19.888 34.1341 22.1016 30.0977C24.3802 26.0612 27.4401 22.4805 31.2812 19.3555C35.1224 16.1654 39.5495 13.3984 44.5625 11.0547C49.6406 8.71094 55.0117 6.75781 60.6758 5.19531C71.6784 2.13542 81.5742 0.605469 90.3633 0.605469C99.1523 0.605469 106.477 0.996094 112.336 1.77734C118.26 2.49349 123.892 3.63281 129.23 5.19531C134.569 6.75781 139.517 8.71094 144.074 11.0547C148.632 13.3984 152.603 16.1654 155.988 19.3555C163.085 26.1263 166.633 34.2318 166.633 43.6719C166.633 51.224 163.475 57.9948 157.16 63.9844C151.496 69.5182 143.879 73.6523 134.309 76.3867ZM59.1133 121.309C66.7305 122.806 72.8828 123.555 77.5703 123.555C82.2578 123.555 86.2292 123.457 89.4844 123.262C92.7396 123.001 96.2552 122.35 100.031 121.309C103.872 120.267 107.16 118.802 109.895 116.914C115.884 112.878 118.879 107.344 118.879 100.312C118.879 93.4766 115.396 87.8776 108.43 83.5156C102.049 79.5443 93.8138 77.3633 83.7227 76.9727C81.5742 81.0091 79.4258 85.0456 77.2773 89.082C75.1289 93.1185 73.013 97.0573 70.9297 100.898C66.5026 108.971 62.5638 115.775 59.1133 121.309Z" fill="#AA3A3A"/>
</svg>
