<svg width="350" height="500" viewBox="0 0 350 500" fill="none" xmlns="http://www.w3.org/2000/svg">
<rect width="350" height="500" rx="20" fill="#151D3B"/>
<path d="M112.957 362.706C109.174 366.488 105.443 368.312 101.761 368.178C98.0793 368.044 94.0294 365.768 89.6114 361.35C86.0971 357.836 82.9007 353.468 80.0223 348.247C77.1774 342.992 75.6211 337.62 75.3533 332.131C75.0856 326.575 76.9766 321.772 81.0264 317.723C83.5367 315.212 86.1138 313.74 88.7579 313.305C91.402 312.869 93.8621 313.79 96.138 316.066C97.5772 317.505 98.4307 318.927 98.6984 320.333C98.9327 321.705 98.4474 322.994 97.2425 324.199C96.0376 325.404 94.6486 325.923 93.0755 325.755C93.3768 324.852 93.3098 323.714 92.8747 322.341C92.4396 320.969 91.7367 319.798 90.7661 318.827C89.8624 317.923 88.8751 317.438 87.804 317.371C86.7665 317.271 85.7122 317.756 84.6412 318.827C82.8673 320.601 82.3987 323.513 83.2354 327.563C84.0387 331.579 85.7791 335.93 88.4567 340.616C91.1678 345.268 94.2302 349.301 97.6441 352.715C100.188 355.259 102.564 356.765 104.773 357.234C106.982 357.702 109.225 356.798 111.501 354.523C113.475 352.548 114.864 350.289 115.668 347.745C116.471 345.201 116.672 342.524 116.27 339.712L117.927 339.06C119.199 342.005 119.717 345 119.483 348.046C119.249 351.092 118.529 353.887 117.324 356.43C116.086 358.941 114.63 361.032 112.957 362.706ZM131.486 343.173C129.578 345.081 127.335 346.018 124.758 345.984C122.181 345.951 119.503 344.545 116.725 341.767C114.249 339.29 112.14 336.211 110.4 332.529C108.659 328.781 107.822 324.999 107.889 321.183C107.956 317.301 109.345 314.004 112.056 311.293C113.429 309.921 114.684 309.134 115.822 308.933C116.96 308.732 117.914 309.017 118.683 309.787L119.035 310.138L116.926 306.925L124.156 299.696L137.611 320.38C137.979 321.016 138.447 321.618 139.016 322.187C140.455 323.626 141.861 323.66 143.233 322.288C144.171 321.351 144.539 320.112 144.338 318.573C144.171 316.999 143.585 315.309 142.581 313.502L144.689 311.393C147.066 316.246 147.986 320.246 147.451 323.392C146.915 326.471 145.727 328.931 143.886 330.772C142.48 332.178 140.957 332.931 139.317 333.031C137.677 333.065 136.021 332.412 134.347 331.073C134.749 333.416 134.782 335.625 134.448 337.7C134.113 339.709 133.126 341.533 131.486 343.173ZM129.879 335.04C130.716 334.203 131.151 332.998 131.184 331.425C131.218 329.785 130.699 328.128 129.628 326.455L120.692 312.699C120.256 312.263 119.671 312.012 118.934 311.946C118.165 311.845 117.428 312.146 116.725 312.849C115.387 314.188 114.968 316.179 115.47 318.824C115.939 321.434 116.976 324.145 118.583 326.957C120.156 329.735 121.779 331.96 123.453 333.634C125.126 335.307 126.432 336.144 127.369 336.144C128.339 336.111 129.176 335.743 129.879 335.04ZM156.857 317.801C155.251 319.408 153.443 320.211 151.435 320.211C149.461 320.177 147.469 319.157 145.461 317.148C144.624 316.312 143.67 315.09 142.599 313.483L122.819 282.959L129.245 274.525L150.582 307.409C150.95 308.045 151.418 308.647 151.987 309.216C152.657 309.885 153.293 310.22 153.895 310.22C154.498 310.153 155.167 309.752 155.903 309.015C156.874 308.045 157.376 306.739 157.41 305.099C157.41 303.426 156.941 301.752 156.004 300.079L158.112 297.97C160.489 302.823 161.359 306.873 160.723 310.12C160.054 313.333 158.765 315.893 156.857 317.801ZM172.451 302.207C169.974 304.684 167.414 305.973 164.77 306.073C162.092 306.14 159.381 304.801 156.636 302.057C154.327 299.747 152.235 296.752 150.361 293.07C148.52 289.355 147.6 285.489 147.6 281.473C147.6 277.39 149.156 273.792 152.269 270.679C154.277 268.671 156.134 267.683 157.841 267.717C159.582 267.717 161.121 268.386 162.46 269.725C163.632 270.896 164.284 272.051 164.418 273.189C164.552 274.327 164.234 275.281 163.464 276.051C162.895 276.62 162.109 277.005 161.105 277.206C160.402 275.699 159.615 274.511 158.745 273.641C158.109 273.005 157.49 272.62 156.888 272.486C156.285 272.352 155.75 272.52 155.281 272.988C154.277 273.992 154.093 275.817 154.729 278.461C155.365 281.105 156.536 283.916 158.243 286.895C159.95 289.874 161.741 292.3 163.615 294.175C165.255 295.815 166.661 296.651 167.832 296.685C168.97 296.685 170.175 296.049 171.447 294.777C173.254 292.97 174.375 291.012 174.811 288.903C175.279 286.761 175.43 284.067 175.262 280.82L176.969 279.113C179.446 289.02 177.94 296.718 172.451 302.207ZM189.51 285.148C187.903 286.755 186.096 287.558 184.088 287.558C182.113 287.525 180.122 286.504 178.113 284.496C177.277 283.659 176.323 282.437 175.252 280.831L162.55 261.301L169.78 254.072L183.234 274.756C183.636 275.359 184.054 275.877 184.489 276.312C185.862 277.685 187.05 277.869 188.054 276.865C188.991 275.928 189.409 274.739 189.309 273.3C189.175 271.827 188.623 270.204 187.652 268.43L174.951 248.901L182.18 241.671L195.635 262.356C196.003 262.991 196.472 263.594 197.041 264.163C197.71 264.832 198.346 265.167 198.948 265.167C199.551 265.1 200.22 264.698 200.957 263.962C201.894 263.025 202.295 261.82 202.161 260.347C202.061 258.841 201.542 257.218 200.605 255.478L202.714 253.369C205.09 258.222 206.01 262.222 205.475 265.368C204.939 268.447 203.751 270.907 201.91 272.748C200.471 274.187 198.915 274.94 197.241 275.007C195.601 275.041 193.911 274.354 192.171 272.949C192.874 275.928 192.924 278.388 192.321 280.329C191.752 282.237 190.815 283.843 189.51 285.148ZM214.857 259.801C213.251 261.408 211.443 262.211 209.435 262.211C207.461 262.177 205.469 261.157 203.461 259.148C202.624 258.312 201.67 257.09 200.599 255.483L180.819 224.959L187.245 216.525L208.582 249.409C208.95 250.045 209.419 250.647 209.987 251.216C210.657 251.885 211.293 252.22 211.895 252.22C212.498 252.153 213.167 251.752 213.903 251.015C214.874 250.045 215.376 248.739 215.41 247.099C215.41 245.426 214.941 243.752 214.004 242.079L216.112 239.97C218.489 244.823 219.359 248.873 218.723 252.12C218.054 255.333 216.765 257.893 214.857 259.801ZM229.296 245.362C227.388 247.27 225.146 248.207 222.569 248.174C219.992 248.14 217.314 246.734 214.536 243.956C212.059 241.48 209.951 238.4 208.21 234.719C206.47 230.97 205.633 227.188 205.7 223.372C205.767 219.49 207.156 216.193 209.867 213.482C211.239 212.11 212.494 211.323 213.632 211.123C214.77 210.922 215.724 211.206 216.494 211.976L216.846 212.327L214.737 209.114L221.966 201.885L235.421 222.569C235.789 223.205 236.258 223.808 236.827 224.377C238.266 225.816 239.672 225.849 241.044 224.477C241.981 223.54 242.349 222.301 242.149 220.762C241.981 219.189 241.396 217.499 240.391 215.691L242.5 213.583C244.876 218.436 245.797 222.435 245.261 225.581C244.726 228.661 243.538 231.121 241.697 232.962C240.291 234.367 238.768 235.12 237.128 235.221C235.488 235.254 233.831 234.602 232.158 233.263C232.56 235.606 232.593 237.815 232.258 239.89C231.924 241.898 230.936 243.722 229.296 245.362ZM227.69 237.229C228.526 236.392 228.962 235.187 228.995 233.614C229.028 231.974 228.51 230.317 227.439 228.644L218.502 214.888C218.067 214.453 217.481 214.202 216.745 214.135C215.975 214.034 215.239 214.336 214.536 215.039C213.197 216.377 212.779 218.369 213.281 221.013C213.75 223.624 214.787 226.335 216.394 229.146C217.967 231.924 219.59 234.15 221.264 235.823C222.937 237.497 224.242 238.333 225.179 238.333C226.15 238.3 226.987 237.932 227.69 237.229ZM254.668 219.99C253.061 221.597 251.254 222.4 249.246 222.4C247.271 222.367 245.28 221.346 243.272 219.338C242.435 218.501 241.481 217.279 240.41 215.673L229.315 198.553L227.658 200.21L226.051 197.8L227.708 196.143L222.286 187.709L228.712 179.274L234.938 188.914L237.95 185.901L239.556 188.311L236.544 191.324L248.392 209.598C248.761 210.234 249.229 210.836 249.798 211.405C250.468 212.075 251.103 212.409 251.706 212.409C252.308 212.343 252.978 211.941 253.714 211.205C254.685 210.234 255.187 208.929 255.22 207.289C255.22 205.615 254.752 203.942 253.815 202.268L255.923 200.16C258.299 205.013 259.17 209.062 258.534 212.309C257.864 215.522 256.576 218.083 254.668 219.99ZM270.312 204.146C267.835 206.622 265.241 207.945 262.53 208.112C259.819 208.279 257.091 206.991 254.347 204.246C252.071 201.97 250.012 198.975 248.172 195.259C246.331 191.544 245.444 187.645 245.511 183.562C245.544 179.445 247.134 175.814 250.28 172.667C254.564 168.383 259.384 168.919 264.739 174.274L264.789 174.324C264.923 174.257 265.124 174.09 265.392 173.822C266.496 172.718 267.484 171.161 268.354 169.153C269.191 167.111 269.776 165.087 270.111 163.078L271.918 163.982C271.985 165.99 271.6 168.149 270.764 170.458C269.927 172.701 268.739 174.893 267.199 177.035C269.977 180.349 271.952 183.696 273.123 187.076C274.295 190.457 274.629 193.636 274.127 196.615C273.625 199.594 272.353 202.104 270.312 204.146ZM267.802 197.619C268.605 196.816 268.956 195.561 268.856 193.854C268.722 192.113 268.17 190.155 267.199 187.98C266.195 185.771 264.856 183.562 263.183 181.353C262.078 182.056 260.924 181.805 259.719 180.6C258.346 179.227 257.961 177.805 258.564 176.332C257.393 175.295 256.472 174.709 255.803 174.575C255.1 174.408 254.414 174.659 253.744 175.328C252.64 176.433 252.372 178.307 252.941 180.951C253.51 183.595 254.598 186.357 256.204 189.235C257.811 192.113 259.468 194.406 261.175 196.113C262.781 197.72 264.053 198.623 264.99 198.824C265.894 198.991 266.831 198.59 267.802 197.619ZM263.155 160.696L270.385 153.467L272.845 157.232C272.979 155.09 273.23 153.299 273.598 151.86C274 150.387 274.736 149.115 275.807 148.044C276.878 146.973 278.083 146.505 279.422 146.639C280.794 146.739 281.999 147.308 283.036 148.346C284.007 149.316 284.542 150.488 284.643 151.86C284.743 153.232 284.225 154.487 283.087 155.625C282.35 156.362 281.681 156.696 281.078 156.629C280.476 156.496 279.773 156.161 278.97 155.625C278.434 155.291 278.016 155.073 277.715 154.973C277.413 154.872 277.129 154.956 276.861 155.224C276.158 155.927 275.706 156.68 275.506 157.483C275.305 158.219 275.171 159.324 275.104 160.796L290.165 183.891L282.936 191.12L263.155 160.696Z" fill="#DADBBD"/>
<line x1="35.7678" y1="41.7166" x2="49.9099" y2="55.8588" stroke="#DADBBD" stroke-width="5"/>
<line x1="35.7478" y1="55.3744" x2="49.89" y2="41.2322" stroke="#DADBBD" stroke-width="5"/>
<line x1="313.264" y1="464.369" x2="299.121" y2="450.227" stroke="#DADBBD" stroke-width="5"/>
<line x1="313.284" y1="450.711" x2="299.141" y2="464.853" stroke="#DADBBD" stroke-width="5"/>
<line x1="185.283" y1="41.7166" x2="199.425" y2="55.8588" stroke="#DADBBD" stroke-width="5"/>
<line x1="185.263" y1="55.3744" x2="199.406" y2="41.2322" stroke="#DADBBD" stroke-width="5"/>
<line x1="163.748" y1="464.32" x2="149.606" y2="450.178" stroke="#DADBBD" stroke-width="5"/>
<line x1="163.768" y1="450.662" x2="149.626" y2="464.805" stroke="#DADBBD" stroke-width="5"/>
<path d="M155.516 40V60" stroke="#DADBBD" stroke-width="5"/>
<line x1="145.516" y1="49.5" x2="165.516" y2="49.5" stroke="#DADBBD" stroke-width="5"/>
<path d="M193.516 466.049V446.049" stroke="#DADBBD" stroke-width="5"/>
<line x1="203.516" y1="456.549" x2="183.516" y2="456.549" stroke="#DADBBD" stroke-width="5"/>
<path d="M305.031 40V60" stroke="#DADBBD" stroke-width="5"/>
<line x1="295.031" y1="49.5" x2="315.031" y2="49.5" stroke="#DADBBD" stroke-width="5"/>
<path d="M44 466V446" stroke="#DADBBD" stroke-width="5"/>
<line x1="54" y1="456.5" x2="34" y2="456.5" stroke="#DADBBD" stroke-width="5"/>
<line x1="107.516" y1="48.5" x2="127.516" y2="48.5" stroke="#DADBBD" stroke-width="5"/>
<line x1="241.516" y1="457.561" x2="221.516" y2="457.561" stroke="#DADBBD" stroke-width="5"/>
<line x1="257.031" y1="48.5" x2="277.031" y2="48.5" stroke="#DADBBD" stroke-width="5"/>
<line x1="92.0004" y1="457.512" x2="72.0004" y2="457.512" stroke="#DADBBD" stroke-width="5"/>
<line x1="69.5156" y1="49.5" x2="89.5156" y2="49.5" stroke="#DADBBD" stroke-width="5"/>
<circle cx="79.0156" cy="42.5" r="2.5" fill="#DADBBD"/>
<circle cx="79.0156" cy="57.5" r="2.5" fill="#DADBBD"/>
<line x1="279.516" y1="456.574" x2="259.516" y2="456.574" stroke="#DADBBD" stroke-width="5"/>
<circle cx="270.016" cy="463.574" r="2.5" transform="rotate(-180 270.016 463.574)" fill="#DADBBD"/>
<circle cx="270.016" cy="448.574" r="2.5" transform="rotate(-180 270.016 448.574)" fill="#DADBBD"/>
<line x1="219.031" y1="49.5" x2="239.031" y2="49.5" stroke="#DADBBD" stroke-width="5"/>
<circle cx="228.531" cy="42.5" r="2.5" fill="#DADBBD"/>
<circle cx="228.531" cy="57.5" r="2.5" fill="#DADBBD"/>
<line x1="130" y1="456.525" x2="110" y2="456.525" stroke="#DADBBD" stroke-width="5"/>
<circle cx="120.5" cy="463.525" r="2.5" transform="rotate(-180 120.5 463.525)" fill="#DADBBD"/>
<circle cx="120.5" cy="448.525" r="2.5" transform="rotate(-180 120.5 448.525)" fill="#DADBBD"/>
</svg>
