<svg width="50" height="50" viewBox="0 0 50 50" fill="none" xmlns="http://www.w3.org/2000/svg">
<path d="M37.5 9.375V0H26.5625C23.9736 0 21.875 2.09863 21.875 4.6875V32.8125C21.875 35.4014 23.9736 37.5 26.5625 37.5H45.3125C47.9014 37.5 50 35.4014 50 32.8125V12.5H40.7129C38.9062 12.5 37.5 11.0938 37.5 9.375ZM40.625 0V9.375H50L40.625 0ZM18.75 34.375V12.5H4.6875C2.09863 12.5 0 14.5986 0 17.1875V45.3125C0 47.9014 2.09863 50 4.6875 50H23.4375C26.0264 50 28.125 47.9014 28.125 45.3125V40.625H25C21.5527 40.625 18.75 37.8223 18.75 34.375Z" fill="#77E4D4"/>
</svg>
