<svg width="150" height="200" viewBox="0 0 150 200" fill="none" xmlns="http://www.w3.org/2000/svg">
<rect x="0.5" y="0.5" width="149" height="199" rx="9.5" fill="#B4FE98" stroke="black"/>
<path d="M48.1678 140.414C46.8361 141.745 45.522 142.388 44.2257 142.34C42.9293 142.293 41.5033 141.492 39.9477 139.936C38.7102 138.699 37.5848 137.161 36.5712 135.322C35.5695 133.472 35.0215 131.581 34.9272 129.648C34.8329 127.692 35.4988 126 36.9248 124.574C37.8087 123.691 38.7161 123.172 39.6472 123.019C40.5782 122.866 41.4444 123.19 42.2458 123.991C42.7525 124.498 43.0531 124.999 43.1473 125.494C43.2298 125.977 43.059 126.431 42.6347 126.855C42.2104 127.279 41.7213 127.462 41.1674 127.403C41.2735 127.085 41.2499 126.684 41.0967 126.201C40.9435 125.718 40.696 125.305 40.3543 124.963C40.0361 124.645 39.6884 124.474 39.3113 124.451C38.9459 124.415 38.5747 124.586 38.1976 124.963C37.573 125.588 37.408 126.613 37.7026 128.039C37.9855 129.453 38.5983 130.986 39.5411 132.635C40.4957 134.274 41.574 135.694 42.7761 136.896C43.6718 137.791 44.5085 138.322 45.2863 138.487C46.0642 138.652 46.8538 138.334 47.6551 137.532C48.3505 136.837 48.8395 136.041 49.1224 135.146C49.4052 134.25 49.4759 133.307 49.3345 132.317L49.9179 132.087C50.3657 133.125 50.5484 134.179 50.4659 135.252C50.3834 136.324 50.13 137.308 49.7058 138.204C49.2697 139.088 48.7571 139.824 48.1678 140.414ZM44.828 125.51L47.3735 122.965L48.2398 124.29C48.2869 123.536 48.3753 122.906 48.5049 122.399C48.6463 121.88 48.9056 121.432 49.2827 121.055C49.6599 120.678 50.0841 120.513 50.5555 120.56C51.0387 120.596 51.463 120.796 51.8283 121.161C52.1701 121.503 52.3586 121.916 52.394 122.399C52.4294 122.882 52.2467 123.324 51.846 123.725C51.5867 123.984 51.351 124.102 51.1389 124.078C50.9268 124.031 50.6793 123.913 50.3964 123.725C50.2079 123.607 50.0606 123.53 49.9545 123.495C49.8484 123.459 49.7482 123.489 49.654 123.583C49.4065 123.831 49.2474 124.096 49.1767 124.379C49.106 124.638 49.0588 125.027 49.0352 125.545L54.3385 133.677L51.793 136.223L44.828 125.51ZM61.7628 126.394C60.8907 127.267 59.9773 127.732 59.0227 127.791C58.0681 127.85 57.1076 127.396 56.1413 126.43C55.3399 125.628 54.6151 124.574 53.9669 123.265C53.3187 121.957 53.0064 120.584 53.03 119.147C53.0418 117.697 53.6016 116.418 54.7094 115.311C56.2179 113.802 57.9149 113.991 59.8005 115.876L59.8182 115.894C59.8654 115.87 59.9361 115.811 60.0303 115.717C60.4193 115.328 60.7669 114.78 61.0733 114.073C61.368 113.354 61.5742 112.641 61.692 111.934L62.3284 112.252C62.352 112.959 62.2165 113.72 61.9219 114.533C61.6272 115.322 61.2089 116.094 60.6667 116.848C61.6449 118.015 62.3402 119.194 62.7527 120.384C63.1652 121.574 63.283 122.694 63.1063 123.743C62.9295 124.792 62.4816 125.676 61.7628 126.394ZM60.8789 124.096C61.1617 123.813 61.2855 123.372 61.2501 122.77C61.203 122.158 61.0085 121.468 60.6667 120.702C60.3132 119.924 59.8418 119.147 59.2525 118.369C58.8636 118.616 58.457 118.528 58.0328 118.104C57.5496 117.62 57.414 117.12 57.6262 116.601C57.2137 116.236 56.8896 116.029 56.6539 115.982C56.4064 115.923 56.1648 116.012 55.9291 116.247C55.5402 116.636 55.4459 117.296 55.6463 118.227C55.8466 119.158 56.2296 120.131 56.7953 121.144C57.361 122.158 57.9444 122.965 58.5454 123.566C59.1111 124.132 59.5589 124.45 59.8889 124.521C60.2071 124.579 60.5371 124.438 60.8789 124.096ZM68.7358 119.492C68.1701 120.058 67.5337 120.341 66.8266 120.341C66.1313 120.329 65.43 119.969 64.7229 119.262C64.4283 118.968 64.0924 118.538 63.7153 117.972L59.2429 111.095L61.7884 108.55L66.5261 115.833C66.6321 116.01 66.7618 116.175 66.915 116.328C67.4335 116.846 67.8696 116.929 68.2231 116.575C68.5531 116.245 68.7004 115.827 68.6651 115.32C68.6179 114.802 68.4235 114.23 68.0817 113.605L63.6092 106.729L66.1548 104.183L70.8924 111.466C71.1281 111.82 71.3108 112.062 71.4404 112.191C71.8294 112.58 72.2242 112.574 72.6249 112.174C73.167 111.631 73.3261 110.789 73.1022 109.646C72.89 108.491 72.454 107.3 71.794 106.075C71.134 104.849 70.4623 103.895 69.7787 103.211C69.8141 103.293 69.7846 103.417 69.6904 103.582C69.5843 103.735 69.4841 103.859 69.3898 103.953C69.1895 104.154 68.9361 104.219 68.6297 104.148C68.3351 104.065 68.0758 103.912 67.8519 103.688C67.569 103.405 67.4276 103.087 67.4276 102.734C67.4394 102.368 67.628 102.003 67.9933 101.638C68.3822 101.249 68.8124 101.113 69.2838 101.231C69.7434 101.337 70.1971 101.614 70.645 102.062C71.7056 103.123 72.6602 104.443 73.5087 106.022C74.3455 107.589 74.811 109.174 74.9053 110.777C74.9996 112.38 74.4869 113.741 73.3673 114.861C72.7898 115.438 72.1947 115.786 71.5819 115.904C70.969 116.021 70.3621 115.886 69.7611 115.497C70.0911 117.147 69.7493 118.479 68.7358 119.492ZM80.7943 107.434C80.1225 108.105 79.3329 108.435 78.4255 108.424C77.518 108.412 76.5752 107.917 75.597 106.939C74.725 106.067 73.9825 104.982 73.3697 103.686C72.7568 102.366 72.4622 101.034 72.4858 99.6908C72.5093 98.3237 72.9984 97.1629 73.953 96.2083C74.4362 95.7251 74.8782 95.4481 75.2789 95.3774C75.6795 95.3067 76.0154 95.4069 76.2865 95.6779L76.3572 95.7486L73.1575 90.8166L75.4203 87.8467L82.9333 99.4256C83.0629 99.6495 83.2279 99.8617 83.4283 100.062C83.664 100.298 83.8879 100.416 84.1 100.416C84.3121 100.392 84.5478 100.251 84.8071 99.9913C85.1371 99.6613 85.2785 99.237 85.2314 98.7185C85.196 98.1882 85.0134 97.6166 84.6834 97.0038L85.4258 96.2613C86.8165 99.0897 86.6868 101.329 85.0369 102.979C84.5537 103.462 84.0293 103.727 83.4636 103.774C82.9097 103.81 82.3499 103.615 81.7842 103.191C81.9492 103.969 81.9669 104.729 81.8373 105.471C81.7194 106.202 81.3718 106.856 80.7943 107.434ZM80.2286 104.57C80.5114 104.287 80.6646 103.874 80.6882 103.332C80.7236 102.778 80.5645 102.219 80.2109 101.653L80.1225 101.565L76.9406 96.6502C76.422 96.3438 75.9742 96.3792 75.597 96.7563C75.1256 97.2277 74.9783 97.9289 75.1551 98.8599C75.3201 99.7792 75.6854 100.734 76.2511 101.724C76.805 102.702 77.3766 103.486 77.9659 104.075C78.5551 104.664 79.0147 104.959 79.3447 104.959C79.6865 104.947 79.9811 104.817 80.2286 104.57ZM90.683 106.172C90.1291 106.725 89.4632 107.026 88.6854 107.073C87.9076 107.144 87.2418 106.902 86.6879 106.348C86.1811 105.842 85.8924 105.294 85.8216 104.704C85.7509 104.115 85.8216 103.514 86.0338 102.901C86.2577 102.3 86.6054 101.552 87.0768 100.656L79.1218 88.4232C78.2261 87.0561 77.8549 85.8599 78.0081 84.8346C78.1731 83.7975 78.6151 82.9195 79.3339 82.2006C79.8878 81.6467 80.5537 81.3462 81.3315 81.2991C82.1093 81.2284 82.7752 81.47 83.3291 82.0239C83.6002 82.2949 83.8241 82.5542 84.0008 82.8017L83.17 83.6325C82.9343 83.3497 82.787 83.1788 82.7281 83.1199C82.5395 82.9313 82.3274 82.8488 82.0917 82.8724C81.856 82.896 81.6438 83.002 81.4553 83.1906C81.2078 83.4381 81.0781 83.7916 81.0664 84.2513C81.0428 84.6991 81.2431 85.2412 81.6674 85.8776L82.7634 87.5747L87.4833 82.8547L92.221 90.1379C92.3624 90.3501 92.5097 90.5327 92.6629 90.6859C93.1461 91.1691 93.5645 91.2339 93.918 90.8804C94.248 90.5504 94.3953 90.132 94.36 89.6253C94.3128 89.1067 94.1184 88.5351 93.7766 87.9105L89.3041 81.0339L91.8497 78.4883L96.5873 85.7715C96.717 85.9955 96.882 86.2076 97.0823 86.4079C97.318 86.6436 97.5419 86.7615 97.7541 86.7615C97.9662 86.7379 98.2019 86.5965 98.4612 86.3372C98.7912 86.0072 98.9326 85.583 98.8854 85.0644C98.8501 84.5341 98.6674 83.9625 98.3374 83.3497L99.0799 82.6072C99.9166 84.3161 100.241 85.7244 100.052 86.8322C99.8636 87.9164 99.4452 88.7826 98.7971 89.4308C98.2903 89.9376 97.7423 90.2027 97.153 90.2263C96.5756 90.2381 95.9804 89.9965 95.3676 89.5015C95.6151 90.5504 95.6328 91.4166 95.4206 92.1001C95.2203 92.7719 94.8903 93.3376 94.4307 93.7972C93.865 94.3629 93.2286 94.6457 92.5215 94.6457C91.8262 94.6339 91.1249 94.2745 90.4178 93.5674C90.1232 93.2728 89.7873 92.8426 89.4102 92.2769L85.4858 86.2665L83.3291 88.4232L90.8421 100.002C91.7496 101.381 92.1267 102.571 91.9735 103.573C91.8321 104.586 91.4019 105.453 90.683 106.172ZM88.7031 105.005C89.1745 104.533 89.0508 103.738 88.3319 102.618L87.5364 101.363C87.1239 102.2 86.8882 102.919 86.8293 103.52C86.7703 104.145 86.9648 104.681 87.4126 105.129C87.5541 105.27 87.7544 105.329 88.0137 105.305C88.2847 105.294 88.5145 105.193 88.7031 105.005ZM107.998 80.2303C107.279 80.9492 106.56 81.2909 105.841 81.2556C105.122 81.1967 104.48 80.8844 103.914 80.3187C103.667 80.0712 103.419 79.7648 103.172 79.3994C102.912 79.0223 102.665 78.657 102.429 78.3034C102.205 77.9381 102.064 77.7024 102.005 77.5963C101.687 77.0895 101.368 76.5946 101.05 76.1114C100.732 75.6282 100.449 75.2629 100.202 75.0154C99.6007 74.4143 99.088 74.3259 98.6638 74.7502C98.3574 75.0566 98.2395 75.4809 98.3102 76.023C98.3692 76.5533 98.5695 77.1308 98.9113 77.7554L103.384 84.632L100.838 87.1776L93.8731 76.4649L96.4187 73.9194L97.1435 75.033C97.0728 73.7838 97.4322 72.7644 98.2218 71.9748C98.8229 71.3738 99.4652 71.0615 100.149 71.0379C100.832 71.0143 101.51 71.3384 102.182 72.0102C102.523 72.3519 102.865 72.7762 103.207 73.283C103.537 73.7779 103.926 74.4025 104.374 75.1568C104.645 75.6164 104.916 76.0642 105.187 76.5003C105.458 76.9128 105.694 77.2192 105.894 77.4195C106.13 77.6552 106.365 77.7849 106.601 77.8084C106.837 77.832 107.084 77.7142 107.344 77.4549C107.697 77.1013 107.856 76.6947 107.821 76.2351C107.774 75.7637 107.591 75.1568 107.273 74.4143L108.015 73.6719C108.876 75.4043 109.241 76.7831 109.111 77.8084C108.982 78.8102 108.61 79.6175 107.998 80.2303ZM112.662 75.5654C111.991 76.2372 111.201 76.5672 110.294 76.5554C109.386 76.5436 108.443 76.0486 107.465 75.0705C106.593 74.1984 105.851 73.1141 105.238 71.8178C104.625 70.4978 104.33 69.1661 104.354 67.8226C104.377 66.4556 104.867 65.2947 105.821 64.3401C106.304 63.8569 106.746 63.58 107.147 63.5093C107.548 63.4386 107.884 63.5387 108.155 63.8098L108.225 63.8805L105.026 58.9484L107.288 55.9786L114.801 67.5575C114.931 67.7814 115.078 67.9758 115.243 68.1408C115.715 68.6122 116.192 68.6063 116.675 68.1231C116.887 67.911 117.041 67.6871 117.135 67.4514C117.677 68.0878 117.919 68.7536 117.86 69.449C117.801 70.1207 117.518 70.71 117.011 71.2167C116.54 71.6881 116.021 71.971 115.455 72.0653C114.89 72.136 114.306 71.9769 113.705 71.588C113.976 73.2732 113.629 74.5991 112.662 75.5654ZM112.097 72.7017C112.356 72.4424 112.503 72.0712 112.539 71.588C112.586 71.093 112.474 70.5803 112.203 70.05L111.991 69.6965L108.809 64.7821C108.29 64.4757 107.842 64.511 107.465 64.8881C106.994 65.3595 106.846 66.0608 107.023 66.9918C107.188 67.911 107.554 68.8656 108.119 69.8556C108.673 70.8337 109.245 71.6174 109.834 72.2067C110.423 72.7959 110.883 73.0906 111.213 73.0906C111.555 73.0788 111.849 72.9492 112.097 72.7017Z" fill="black"/>
<path d="M25 40C33.2843 40 40 33.2843 40 25C40 16.7157 33.2843 10 25 10C16.7157 10 10 16.7157 10 25C10 33.2843 16.7157 40 25 40Z" fill="#272727"/>
<path d="M18.3383 25.3027C18.5213 25.1197 18.7661 25.0121 19.0246 25.0008C19.2831 24.9896 19.5363 25.0757 19.7344 25.2421L19.7998 25.3027L25.233 30.7359C25.4181 30.925 25.5237 31.1779 25.5279 31.4425C25.5322 31.7071 25.4349 31.9632 25.2559 32.1582C25.077 32.3532 24.8302 32.4721 24.5662 32.4906C24.3022 32.509 24.0412 32.4255 23.8369 32.2573L23.7716 32.1973L18.3383 26.7641C18.1447 26.5702 18.0359 26.3074 18.0359 26.0334C18.0359 25.7594 18.1447 25.4965 18.3383 25.3027V25.3027Z" fill="#444444"/>
<path d="M29.3874 19.3643C29.9264 18.8307 30.8371 19.1821 30.8901 19.9139L30.8928 19.9814V25.7328C30.8928 26.215 30.498 26.6055 30.011 26.6055C29.7897 26.6065 29.5761 26.5239 29.413 26.3742C29.2499 26.2245 29.1493 26.0188 29.1314 25.7982L29.1287 25.7328V22.0873L24.8199 26.35C24.281 26.8835 23.3698 26.5321 23.3167 25.8003L23.3146 25.7328V22.0873L19.0053 26.35C18.8483 26.5045 18.6395 26.5953 18.4194 26.6047C18.1993 26.6141 17.9835 26.5415 17.8139 26.4009L17.7576 26.35C17.6017 26.1964 17.5096 25.9895 17.5001 25.7708C17.4905 25.5521 17.5642 25.338 17.7062 25.1714L17.7576 25.1162L23.5728 19.3643C24.1117 18.8307 25.023 19.1821 25.076 19.9139L25.0782 19.9814V23.6264L29.3869 19.3643H29.3874Z" fill="white"/>
<path d="M125 190C133.284 190 140 183.284 140 175C140 166.716 133.284 160 125 160C116.716 160 110 166.716 110 175C110 183.284 116.716 190 125 190Z" fill="#272727"/>
<path d="M118.338 175.303C118.521 175.12 118.766 175.012 119.025 175.001C119.283 174.99 119.536 175.076 119.734 175.242L119.8 175.303L125.233 180.736C125.418 180.925 125.524 181.178 125.528 181.442C125.532 181.707 125.435 181.963 125.256 182.158C125.077 182.353 124.83 182.472 124.566 182.491C124.302 182.509 124.041 182.426 123.837 182.257L123.772 182.197L118.338 176.764C118.145 176.57 118.036 176.307 118.036 176.033C118.036 175.759 118.145 175.497 118.338 175.303V175.303Z" fill="#444444"/>
<path d="M129.387 169.364C129.926 168.831 130.837 169.182 130.89 169.914L130.893 169.981V175.733C130.893 176.215 130.498 176.606 130.011 176.606C129.79 176.607 129.576 176.524 129.413 176.374C129.25 176.225 129.149 176.019 129.131 175.798L129.129 175.733V172.087L124.82 176.35C124.281 176.884 123.37 176.532 123.317 175.8L123.315 175.733V172.087L119.005 176.35C118.848 176.505 118.64 176.595 118.419 176.605C118.199 176.614 117.983 176.541 117.814 176.401L117.758 176.35C117.602 176.196 117.51 175.989 117.5 175.771C117.491 175.552 117.564 175.338 117.706 175.171L117.758 175.116L123.573 169.364C124.112 168.831 125.023 169.182 125.076 169.914L125.078 169.981V173.626L129.387 169.364H129.387Z" fill="white"/>
</svg>
