<svg width="150" height="200" viewBox="0 0 150 200" fill="none" xmlns="http://www.w3.org/2000/svg">
<rect x="0.5" y="0.5" width="149" height="199" rx="9.5" fill="#B4FE98" stroke="black"/>
<path d="M54.9702 106.173C54.2513 106.939 53.9626 107.794 54.104 108.737C54.2572 109.668 54.9997 110.799 56.3314 112.131C56.7674 112.567 57.1151 112.832 57.3744 112.926C57.6219 113.009 57.7574 113.062 57.781 113.085C57.1446 113.722 56.5376 114.069 55.9602 114.128C55.3827 114.164 54.7875 113.875 54.1747 113.262C53.338 112.425 52.7841 111.459 52.513 110.363C52.2302 109.255 52.3244 108.041 52.7959 106.721C53.279 105.39 54.216 104.028 55.6066 102.638C55.8894 102.355 56.296 102.007 56.8264 101.595C57.7574 100.829 58.3997 100.269 58.7532 99.9154C59.3778 99.2908 59.8375 98.6897 60.1321 98.1123C60.2028 98.2537 60.3737 98.5542 60.6447 99.0138C60.904 99.4617 61.0395 99.939 61.0513 100.446C61.0631 100.929 60.904 101.418 60.574 101.913C59.8787 102.608 58.9418 103.321 57.7633 104.052L60.5387 108.312L63.1196 105.731L64.1449 107.322L61.564 109.903L66.7789 117.982L64.2333 120.528L54.9702 106.173ZM77.9686 115.631C77.4029 116.197 76.7842 116.521 76.1124 116.603C75.4407 116.686 74.8278 116.45 74.2739 115.896C73.6022 115.225 73.3311 114.411 73.4608 113.457C73.6022 112.514 73.9557 111.489 74.5214 110.381L73.779 109.214C73.8143 109.933 73.7259 110.54 73.5138 111.035C73.3017 111.53 73.0129 111.96 72.6476 112.325C72.0819 112.891 71.4455 113.174 70.7384 113.174C70.0431 113.162 69.3419 112.803 68.6348 112.096C68.3401 111.801 68.0043 111.371 67.6271 110.805L63.1547 103.928L65.7003 101.383L70.4379 108.666C70.544 108.843 70.6736 109.008 70.8268 109.161C71.3453 109.68 71.7814 109.762 72.1349 109.409C72.4414 109.102 72.5828 108.701 72.5592 108.206C72.5239 107.7 72.3589 107.158 72.0642 106.58L67.5211 99.5621L70.0667 97.0165L76.519 106.969C76.8961 106.215 77.067 105.478 77.0317 104.759C76.9963 104.04 76.7252 103.192 76.2185 102.214L76.9609 101.471C77.6916 102.838 78.0334 104.04 77.9863 105.078C77.9273 106.103 77.6445 107.046 77.1377 107.906L78.1454 109.444C79.0528 110.823 79.4299 112.013 79.2767 113.015C79.1353 114.028 78.6993 114.9 77.9686 115.631ZM76.1831 114.659C76.3835 114.458 76.4424 114.129 76.3599 113.669C76.2774 113.209 76.0358 112.673 75.6351 112.06L75.2285 111.442C74.4979 113.021 74.4213 114.099 74.9987 114.677C75.1519 114.83 75.3405 114.912 75.5644 114.924C75.7883 114.936 75.9946 114.847 76.1831 114.659ZM81.2447 103.728C80.6791 104.294 80.0427 104.577 79.3356 104.577C78.6402 104.565 77.939 104.206 77.2319 103.498C76.9373 103.204 76.6014 102.774 76.2243 102.208L69.2593 91.4599L71.522 88.4901L79.035 100.069C79.1647 100.293 79.3297 100.505 79.53 100.705C79.7657 100.941 79.9896 101.059 80.2018 101.059C80.4139 101.035 80.6496 100.894 80.9089 100.635C81.2506 100.293 81.4274 99.8333 81.4392 99.2558C81.4392 98.6665 81.2742 98.0773 80.9442 97.488L81.6867 96.7456C82.5234 98.4544 82.8298 99.8804 82.6059 101.024C82.3702 102.155 81.9165 103.056 81.2447 103.728ZM86.7531 98.1491C85.881 99.0212 84.9677 99.4868 84.0131 99.5457C83.0585 99.6046 82.098 99.1509 81.1316 98.1845C80.3185 97.3713 79.5878 96.3224 78.9396 95.0379C78.2796 93.7415 77.9555 92.3803 77.9673 90.9543C77.9673 89.5165 78.5271 88.2379 79.6467 87.1183C81.0374 85.7276 82.5812 85.7748 84.2783 87.2597C84.4786 86.9415 84.567 86.5703 84.5434 86.146C84.5081 85.71 84.4315 85.2562 84.3136 84.7848L84.8793 84.2191C85.1975 85.1737 85.4155 85.9574 85.5334 86.5703C85.6394 87.1713 85.6041 87.7841 85.4273 88.4087C86.4644 89.5873 87.2069 90.7893 87.6547 92.015C88.1143 93.2289 88.2675 94.372 88.1143 95.4445C87.9493 96.5051 87.4956 97.4067 86.7531 98.1491ZM85.8693 95.851C86.3053 95.415 86.3583 94.6549 86.0284 93.5706C85.6984 92.4864 85.0855 91.355 84.1899 90.1765C83.801 90.3533 83.3944 90.2295 82.9701 89.8053C82.5105 89.3457 82.3691 88.8743 82.5458 88.3911C82.1452 88.0375 81.8211 87.8431 81.5736 87.8077C81.3261 87.7488 81.0904 87.8313 80.8665 88.0552C80.4776 88.4441 80.3892 89.0982 80.6013 90.0174C80.8017 90.9249 81.1906 91.8912 81.768 92.9166C82.3455 93.9183 82.9348 94.7197 83.5358 95.3207C84.1015 95.8864 84.5493 96.2046 84.8793 96.2753C85.1975 96.3342 85.5275 96.1928 85.8693 95.851Z" fill="black"/>
<path fill-rule="evenodd" clip-rule="evenodd" d="M106 170.707V170.779L122.97 178.486L140 170.753V170.733L122.97 163L106 170.707ZM112.118 170.743L122.971 165.814L133.824 170.743L122.97 175.671L112.118 170.743ZM122.97 181.48L106 173.888V176.695L122.97 184.305L140 176.67V173.861L122.97 181.48ZM122.97 187.174L106 179.581V182.39L122.97 190L140 182.364V179.557L122.97 187.174Z" fill="#030303"/>
<path fill-rule="evenodd" clip-rule="evenodd" d="M10 17.7072V17.7789L26.9701 25.4862L44 17.7526V17.733L26.9701 10L10 17.7072ZM16.1181 17.7431L26.9706 12.8143L37.8243 17.7431L26.9701 22.6713L16.1181 17.7431ZM26.9701 28.4797L10 20.8878V23.6954L26.9701 31.3052L44 23.6697V20.8615L26.9701 28.4797ZM26.9701 34.1745L10 26.5814V29.3896L26.9701 37L44 29.3644V26.5568L26.9701 34.1745Z" fill="#030303"/>
</svg>
