<svg width="103" height="100" viewBox="0 0 103 100" fill="none" xmlns="http://www.w3.org/2000/svg">
<path d="M34.3898 80.5198C34.3898 80.9334 33.913 81.2643 33.3119 81.2643C32.6278 81.3263 32.1511 80.9954 32.1511 80.5198C32.1511 80.1063 32.6278 79.7754 33.229 79.7754C33.8508 79.7134 34.3898 80.0443 34.3898 80.5198ZM27.943 79.5893C27.7979 80.0029 28.2125 80.4785 28.8344 80.6026C29.3733 80.8093 29.9952 80.6026 30.1196 80.189C30.244 79.7754 29.8501 79.2999 29.2282 79.1138C28.6893 78.969 28.0881 79.1758 27.943 79.5893ZM37.1053 79.2378C36.5042 79.3826 36.0896 79.7754 36.1518 80.251C36.214 80.6646 36.7529 80.9334 37.3748 80.7887C37.976 80.6439 38.3905 80.251 38.3284 79.8375C38.2662 79.4446 37.7065 79.1758 37.1053 79.2378ZM50.7452 0C21.9937 0 0 21.7739 0 50.4541C0 73.386 14.469 93.0093 35.1361 99.9157C37.7894 100.391 38.7222 98.7578 38.7222 97.4137C38.7222 96.1317 38.66 89.0598 38.66 84.7175C38.66 84.7175 24.1496 87.8192 21.1024 78.5554C21.1024 78.5554 18.7392 72.5382 15.3396 70.9873C15.3396 70.9873 10.5926 67.7409 15.6713 67.8029C15.6713 67.8029 20.8329 68.2165 23.6728 73.1378C28.2125 81.1195 35.8201 78.8243 38.7844 77.4595C39.2612 74.151 40.6086 71.8558 42.1011 70.4911C30.5134 69.209 18.8221 67.5341 18.8221 47.6419C18.8221 41.9555 20.3976 39.102 23.7143 35.4626C23.1753 34.1186 21.4133 28.5769 24.2532 21.4223C28.5856 20.0783 38.5564 27.0054 38.5564 27.0054C42.7022 25.8474 47.159 25.2478 51.5743 25.2478C55.9897 25.2478 60.4465 25.8474 64.5923 27.0054C64.5923 27.0054 74.5631 20.0576 78.8955 21.4223C81.7354 28.5976 79.9734 34.1186 79.4344 35.4626C82.7511 39.1226 84.7826 41.9762 84.7826 47.6419C84.7826 67.5961 72.5731 69.1883 60.9854 70.4911C62.8925 72.1246 64.5094 75.2263 64.5094 80.0856C64.5094 87.0541 64.4472 95.6768 64.4472 97.3724C64.4472 98.7164 65.4008 100.35 68.0334 99.8744C88.7626 93.0093 102.817 73.386 102.817 50.4541C102.817 21.7739 79.4966 0 50.7452 0ZM20.1488 71.3182C19.8793 71.5249 19.9415 72.0005 20.2939 72.3934C20.6256 72.7243 21.1024 72.869 21.3718 72.6002C21.6413 72.3934 21.5791 71.9178 21.2267 71.5249C20.8951 71.1941 20.4183 71.0494 20.1488 71.3182ZM17.9101 69.6433C17.765 69.9121 17.9722 70.2429 18.3868 70.4497C18.7185 70.6565 19.1331 70.5944 19.2782 70.305C19.4233 70.0361 19.216 69.7053 18.8014 69.4985C18.3868 69.3744 18.0552 69.4365 17.9101 69.6433ZM24.6263 77.0046C24.2947 77.2734 24.419 77.8938 24.8958 78.2866C25.3726 78.7622 25.9737 78.8243 26.2432 78.4934C26.5127 78.2246 26.3883 77.6043 25.9737 77.2114C25.5177 76.7358 24.8958 76.6738 24.6263 77.0046ZM22.2632 73.9649C21.9315 74.1717 21.9315 74.7094 22.2632 75.1849C22.5949 75.6605 23.1546 75.8673 23.424 75.6605C23.7557 75.3917 23.7557 74.8541 23.424 74.3785C23.1338 73.9029 22.5949 73.6961 22.2632 73.9649Z" fill="#77E4D4"/>
</svg>
