<svg width="350" height="500" viewBox="0 0 350 500" fill="none" xmlns="http://www.w3.org/2000/svg">
<rect width="350" height="500" rx="20" fill="#151D3B"/>
<path d="M86.6615 324.387C85.4406 325.608 84.2692 326.581 83.1472 327.307C82.0253 328.033 80.7383 328.363 79.2864 328.297C77.8675 328.198 76.3661 327.357 74.7821 325.773C72.5713 323.562 70.2614 319.932 67.8525 314.883C65.4766 309.802 63.4967 304.291 61.9128 298.351C60.3619 300.1 59.3059 301.651 58.745 303.004C58.184 304.357 58.1675 305.594 58.6955 306.716C58.8275 306.584 59.1244 306.617 59.5864 306.815C60.0814 306.98 60.5104 307.244 60.8733 307.607C61.4673 308.201 61.6818 308.944 61.5168 309.835C61.3188 310.693 60.8239 311.518 60.0319 312.31C59.1079 313.233 58.118 313.728 57.062 313.794C56.0061 313.86 55.0161 313.431 54.0922 312.508C52.9703 311.386 52.3763 309.934 52.3103 308.152C52.2773 306.337 52.7723 304.39 53.7952 302.311C54.7852 300.199 56.2206 298.203 58.1015 296.322C58.7945 295.629 59.7019 294.82 60.8239 293.896C59.2399 286.901 58.5965 280.549 58.8934 274.84C59.1904 269.065 60.7084 264.808 63.4472 262.07C65.0311 260.486 66.5656 259.413 68.0505 258.852L96.7095 303.053L89.5819 310.181L75.4256 288.402C73.6437 289.062 72.1093 289.772 70.8223 290.531C69.5354 291.29 68.265 292.197 67.011 293.253C69.1889 299.193 71.7958 304.901 74.8316 310.379C77.8675 315.791 80.6558 319.767 83.1967 322.308C84.4506 323.562 85.6056 324.255 86.6615 324.387ZM63.1007 269.445C62.4408 271.623 62.3748 274.526 62.9027 278.156C63.4307 281.72 64.4372 285.696 65.9221 290.085C68.7599 288.171 71.3503 286.736 73.6932 285.779L63.1007 269.445ZM109.528 290.829C107.647 292.71 105.436 293.634 102.895 293.601C100.354 293.568 97.7144 292.182 94.9756 289.443C92.5337 287.001 90.4548 283.966 88.7389 280.336C87.023 276.64 86.198 272.911 86.264 269.149C86.33 265.321 87.6994 262.071 90.3723 259.398C91.7252 258.045 92.9627 257.27 94.0846 257.072C95.2065 256.874 96.147 257.154 96.906 257.913L97.104 258.111L88.1449 244.302L94.4806 235.986L115.517 268.407C115.88 269.034 116.342 269.628 116.903 270.189C117.563 270.849 118.19 271.179 118.784 271.179C119.378 271.113 120.038 270.717 120.764 269.991C121.688 269.067 122.084 267.879 121.952 266.427C121.853 264.942 121.341 263.342 120.417 261.626L122.496 259.547C126.39 267.466 126.027 273.736 121.407 278.356C120.054 279.709 118.586 280.451 117.002 280.583C115.451 280.682 113.884 280.138 112.3 278.95C112.762 281.128 112.811 283.256 112.448 285.335C112.118 287.381 111.145 289.212 109.528 290.829ZM107.944 282.811C108.736 282.019 109.165 280.864 109.231 279.346C109.33 277.795 108.884 276.227 107.894 274.643L107.647 274.396L98.7374 260.636C97.2854 259.778 96.0315 259.877 94.9756 260.933C93.6556 262.253 93.2431 264.216 93.7381 266.823C94.2001 269.397 95.223 272.07 96.807 274.841C98.3579 277.58 99.9583 279.775 101.608 281.425C103.258 283.075 104.545 283.9 105.469 283.9C106.426 283.867 107.251 283.504 107.944 282.811ZM135.236 265.121C133.322 267.035 131.343 268.057 129.297 268.189C127.251 268.255 125.254 267.315 123.307 265.368C122.515 264.576 121.806 263.702 121.179 262.745L107.914 242.352L115.041 235.224L128.307 255.617C128.967 256.607 129.478 257.284 129.841 257.647C130.93 258.735 132.036 258.719 133.157 257.597C134.675 256.079 135.121 253.72 134.494 250.519C133.9 247.285 132.679 243.952 130.831 240.52C128.983 237.089 127.102 234.416 125.188 232.502C125.287 232.733 125.205 233.079 124.941 233.541C124.644 233.97 124.363 234.317 124.099 234.581C123.538 235.142 122.829 235.323 121.971 235.125C121.146 234.894 120.42 234.465 119.793 233.838C119.001 233.046 118.605 232.155 118.605 231.165C118.638 230.142 119.166 229.119 120.189 228.097C121.278 227.008 122.482 226.628 123.802 226.958C125.089 227.255 126.36 228.031 127.614 229.284C130.584 232.254 133.256 235.95 135.632 240.372C137.975 244.761 139.279 249.199 139.543 253.687C139.807 258.174 138.371 261.986 135.236 265.121ZM156.028 244.329C154.147 246.21 151.937 247.133 149.396 247.1C146.855 247.067 144.215 245.682 141.476 242.943C139.034 240.501 136.955 237.465 135.239 233.835C133.524 230.139 132.699 226.411 132.765 222.649C132.831 218.821 134.2 215.571 136.873 212.898C138.226 211.545 139.463 210.769 140.585 210.571C141.707 210.373 142.648 210.654 143.407 211.413L143.753 211.759L141.674 208.591L148.802 201.464L162.067 221.857C162.43 222.484 162.892 223.078 163.453 223.639C164.872 225.058 166.258 225.091 167.611 223.738C168.535 222.814 168.898 221.593 168.7 220.075C168.535 218.524 167.957 216.858 166.967 215.076L169.046 212.997C171.389 217.781 172.297 221.725 171.769 224.827C171.241 227.862 170.069 230.288 168.254 232.103C166.868 233.489 165.367 234.231 163.75 234.33C162.133 234.363 160.5 233.72 158.85 232.4C159.246 234.71 159.279 236.887 158.949 238.933C158.619 240.913 157.645 242.712 156.028 244.329ZM154.444 236.31C155.269 235.485 155.698 234.297 155.731 232.746C155.764 231.129 155.253 229.496 154.197 227.846L145.386 214.284C144.957 213.855 144.38 213.607 143.654 213.541C142.895 213.442 142.169 213.739 141.476 214.432C140.156 215.752 139.744 217.715 140.239 220.322C140.701 222.896 141.724 225.569 143.308 228.341C144.858 231.08 146.459 233.274 148.109 234.924C149.759 236.574 151.046 237.399 151.97 237.399C152.927 237.366 153.751 237.003 154.444 236.31ZM194.011 206.346C191.998 208.359 189.985 209.316 187.972 209.217C185.96 209.052 184.161 208.177 182.577 206.593C181.884 205.9 181.191 205.042 180.498 204.019C179.772 202.964 179.079 201.941 178.419 200.951C177.792 199.928 177.396 199.268 177.231 198.971C176.341 197.552 175.45 196.166 174.559 194.813C173.668 193.46 172.876 192.437 172.183 191.744C170.5 190.061 169.064 189.814 167.876 191.002C167.018 191.86 166.689 193.048 166.886 194.565C167.051 196.05 167.612 197.667 168.569 199.416L181.092 218.671L173.965 225.798L154.463 195.803L161.59 188.675L163.62 191.794C163.422 188.296 164.428 185.441 166.639 183.231C168.322 181.548 170.12 180.673 172.034 180.607C173.948 180.541 175.846 181.449 177.726 183.33C178.683 184.286 179.64 185.474 180.597 186.893C181.521 188.279 182.61 190.028 183.864 192.14C184.623 193.427 185.382 194.681 186.141 195.902C186.9 197.057 187.56 197.915 188.121 198.476C188.781 199.136 189.441 199.499 190.101 199.565C190.761 199.631 191.454 199.301 192.18 198.575C193.17 197.585 193.615 196.446 193.516 195.159C193.384 193.84 192.873 192.14 191.982 190.061L194.061 187.982C196.469 192.833 197.492 196.694 197.129 199.565C196.766 202.37 195.727 204.63 194.011 206.346ZM208.211 192.146C205.769 194.588 203.245 195.858 200.638 195.957C197.998 196.023 195.325 194.703 192.619 191.997C190.342 189.721 188.28 186.767 186.432 183.137C184.617 179.475 183.71 175.663 183.71 171.703C183.71 167.678 185.244 164.13 188.313 161.061C190.293 159.082 192.124 158.108 193.807 158.141C195.523 158.141 197.041 158.801 198.361 160.121C199.516 161.276 200.159 162.414 200.291 163.536C200.423 164.658 200.11 165.599 199.351 166.358C198.79 166.919 198.015 167.298 197.025 167.496C196.332 166.011 195.556 164.84 194.698 163.982C194.071 163.355 193.461 162.975 192.867 162.843C192.273 162.711 191.745 162.876 191.283 163.338C190.293 164.328 190.112 166.127 190.738 168.734C191.365 171.34 192.52 174.112 194.203 177.049C195.886 179.986 197.652 182.378 199.5 184.226C201.116 185.843 202.502 186.668 203.657 186.701C204.779 186.701 205.967 186.074 207.221 184.82C209.003 183.038 210.108 181.108 210.537 179.029C210.999 176.917 211.148 174.261 210.983 171.06L212.666 169.377C215.108 179.145 213.623 186.734 208.211 192.146ZM227.208 173.149C224.766 175.591 222.241 176.862 219.635 176.961C216.995 177.027 214.322 175.707 211.616 173.001C209.339 170.724 207.277 167.771 205.429 164.141C203.581 160.511 202.673 156.7 202.706 152.707C202.706 148.681 204.257 145.117 207.359 142.015C210.989 138.386 214.388 138.155 217.556 141.322C219.404 143.17 220.575 145.398 221.07 148.005C221.565 150.611 221.416 153.268 220.625 155.974C219.8 158.647 218.463 161.039 216.615 163.151C217.539 164.207 218.166 164.9 218.496 165.23C220.113 166.847 221.499 167.672 222.654 167.705C223.776 167.705 224.964 167.078 226.218 165.824C228 164.042 229.105 162.111 229.534 160.032C229.996 157.921 230.145 155.264 229.98 152.063L231.662 150.38C234.104 160.148 232.619 167.738 227.208 173.149ZM214.635 160.379C215.79 159.092 216.516 157.508 216.813 155.627C217.143 153.713 217.028 151.816 216.467 149.935C215.939 148.021 214.998 146.388 213.645 145.035C212.292 143.682 211.203 143.418 210.379 144.243C209.191 145.431 209.059 147.642 209.983 150.875C210.94 154.076 212.49 157.244 214.635 160.379ZM245.066 155.291C243.185 157.172 240.974 158.096 238.433 158.063C235.892 158.03 233.252 156.644 230.514 153.905C228.072 151.463 225.993 148.428 224.277 144.798C222.561 141.102 221.736 137.373 221.802 133.611C221.868 129.783 223.237 126.533 225.91 123.86C227.263 122.507 228.501 121.732 229.623 121.534C230.745 121.336 231.685 121.616 232.444 122.375L232.642 122.573L223.683 108.764L230.019 100.448L251.055 132.869C251.418 133.496 251.83 134.04 252.292 134.502C253.612 135.822 254.949 135.806 256.302 134.453C256.896 133.859 257.325 133.232 257.589 132.572C259.107 134.354 259.783 136.218 259.618 138.165C259.453 140.046 258.661 141.696 257.242 143.115C255.922 144.435 254.47 145.227 252.886 145.491C251.303 145.689 249.669 145.243 247.986 144.154C248.745 148.873 247.772 152.585 245.066 155.291ZM243.482 147.273C244.208 146.547 244.62 145.507 244.719 144.154C244.851 142.768 244.538 141.333 243.779 139.848L243.185 138.858L234.275 125.098C232.823 124.24 231.57 124.339 230.514 125.395C229.194 126.715 228.781 128.678 229.276 131.285C229.738 133.859 230.761 136.532 232.345 139.303C233.896 142.042 235.496 144.237 237.146 145.887C238.796 147.537 240.083 148.362 241.007 148.362C241.964 148.329 242.789 147.966 243.482 147.273ZM103.409 354.379C102.617 354.973 101.907 355.584 101.28 356.211C98.7725 358.719 97.6176 361.491 97.8156 364.526C98.0136 367.562 100.026 370.994 103.854 374.822C105.075 376.043 106.049 376.785 106.775 377.049C107.468 377.28 107.847 377.429 107.913 377.495C106.131 379.277 104.432 380.25 102.815 380.415C101.198 380.514 99.5315 379.706 97.8156 377.99C95.4727 375.647 93.9218 372.941 93.1628 369.872C92.3709 366.77 92.6349 363.371 93.9548 359.676C95.3077 355.947 97.9311 352.136 101.825 348.242C102.518 347.549 103.887 346.344 105.933 344.628C110.157 341.131 113.292 338.359 115.338 336.313C118.011 333.64 119.677 331.512 120.337 329.928C121.822 330.687 123.092 331.594 124.148 332.65C125.93 334.432 126.656 336.247 126.326 338.095C125.996 339.943 125.221 341.477 124 342.698C123.241 343.457 122.3 344.166 121.178 344.826C120.056 345.42 118.324 346.262 115.981 347.351L111.873 349.281L136.622 387.592L129.494 394.72L103.409 354.379ZM150.53 374.277C148.946 375.861 147.165 376.653 145.185 376.653C143.238 376.62 141.274 375.614 139.294 373.634C138.47 372.809 137.529 371.605 136.473 370.021L123.95 350.766L131.078 343.638L144.343 364.031C144.706 364.658 145.168 365.252 145.729 365.813C146.389 366.473 147.016 366.803 147.61 366.803C148.204 366.737 148.864 366.341 149.59 365.615C150.547 364.658 151.042 363.371 151.075 361.755C151.075 360.105 150.613 358.455 149.689 356.805L151.768 354.726C154.111 359.511 154.969 363.503 154.342 366.704C153.682 369.872 152.411 372.396 150.53 374.277ZM165.535 359.273C163.126 361.682 160.618 362.935 158.011 363.034C155.372 363.1 152.699 361.781 149.993 359.075C147.716 356.798 145.654 353.844 143.806 350.215C141.991 346.552 141.083 342.741 141.083 338.781C141.083 334.755 142.618 331.208 145.687 328.139C147.7 326.126 149.547 325.136 151.23 325.169C152.913 325.202 154.431 325.895 155.784 327.248C156.972 328.436 157.599 329.591 157.665 330.713C157.764 331.802 157.451 332.709 156.725 333.435C156.098 334.062 155.322 334.441 154.398 334.573C153.738 333.122 152.963 331.95 152.072 331.059C150.719 329.706 149.597 329.475 148.706 330.366C147.716 331.356 147.551 333.171 148.211 335.811C148.838 338.418 149.96 341.19 151.577 344.126C153.194 346.997 154.827 349.258 156.477 350.908C159.216 353.646 161.575 354.026 163.555 352.046C164.446 351.155 165.172 349.901 165.733 348.284C166.294 346.601 166.641 344.968 166.773 343.384C170.765 349.159 170.353 354.455 165.535 359.273ZM168.189 290.49L167.595 291.084C164.658 294.021 163.107 297.057 162.942 300.192C162.777 303.26 164.559 306.659 168.288 310.388C169.509 311.609 170.482 312.352 171.208 312.616C171.901 312.846 172.281 312.995 172.347 313.061C170.565 314.843 168.865 315.816 167.249 315.981C165.632 316.08 163.965 315.272 162.249 313.556C159.906 311.213 158.356 308.507 157.597 305.438C156.805 302.337 157.069 298.938 158.389 295.242C159.741 291.513 162.365 287.702 166.259 283.808C168.436 281.63 170.977 279.485 173.881 277.373C176.356 275.624 178.418 273.925 180.068 272.275C182.18 270.163 183.748 267.903 184.771 265.494C186.85 267.705 187.889 269.833 187.889 271.879C187.889 273.925 186.883 275.954 184.87 277.967C183.814 279.023 182.675 279.997 181.454 280.888C180.233 281.779 178.451 283 176.109 284.55L201.055 323.158L193.928 330.286L168.189 290.49ZM216.224 308.584C214.343 310.465 212.132 311.389 209.591 311.356C207.05 311.323 204.41 309.937 201.671 307.198C199.229 304.756 197.151 301.721 195.435 298.091C193.719 294.395 192.894 290.666 192.96 286.904C193.026 283.076 194.395 279.826 197.068 277.153C198.421 275.8 199.658 275.025 200.78 274.827C201.902 274.629 202.843 274.909 203.602 275.668L203.948 276.015L201.869 272.847L208.997 265.719L222.262 286.112C222.625 286.739 223.087 287.333 223.648 287.894C225.067 289.313 226.453 289.346 227.806 287.993C228.73 287.069 229.093 285.848 228.895 284.33C228.73 282.779 228.152 281.113 227.163 279.331L229.241 277.252C231.584 282.037 232.492 285.98 231.964 289.082C231.436 292.118 230.264 294.543 228.449 296.358C227.064 297.744 225.562 298.487 223.945 298.586C222.328 298.619 220.695 297.975 219.045 296.655C219.441 298.965 219.474 301.143 219.144 303.189C218.814 305.169 217.841 306.967 216.224 308.584ZM214.64 300.566C215.465 299.741 215.894 298.553 215.927 297.002C215.96 295.385 215.448 293.751 214.392 292.102L205.582 278.539C205.153 278.11 204.575 277.863 203.849 277.797C203.09 277.698 202.364 277.995 201.671 278.688C200.351 280.008 199.939 281.971 200.434 284.578C200.896 287.152 201.919 289.825 203.503 292.596C205.054 295.335 206.654 297.53 208.304 299.18C209.954 300.83 211.241 301.655 212.165 301.655C213.122 301.622 213.947 301.259 214.64 300.566ZM243.02 281.788C240.611 284.197 238.103 285.451 235.496 285.55C232.856 285.616 230.184 284.296 227.478 281.59C225.201 279.313 223.138 276.36 221.291 272.73C219.476 269.067 218.568 265.256 218.568 261.296C218.568 257.27 220.103 253.723 223.171 250.654C225.184 248.641 227.032 247.651 228.715 247.684C230.398 247.717 231.916 248.41 233.269 249.763C234.457 250.951 235.084 252.106 235.15 253.228C235.249 254.317 234.935 255.224 234.209 255.95C233.582 256.577 232.807 256.957 231.883 257.089C231.223 255.637 230.448 254.465 229.557 253.574C228.204 252.221 227.082 251.99 226.191 252.881C225.201 253.871 225.036 255.686 225.696 258.326C226.323 260.933 227.445 263.705 229.062 266.642C230.679 269.512 232.312 271.773 233.962 273.423C236.701 276.162 239.06 276.541 241.04 274.561C241.931 273.67 242.657 272.416 243.218 270.799C243.779 269.117 244.125 267.483 244.257 265.899C248.25 271.674 247.838 276.97 243.02 281.788ZM245.674 213.005L245.08 213.599C242.143 216.536 240.592 219.572 240.427 222.707C240.262 225.776 242.044 229.174 245.773 232.903C246.994 234.124 247.967 234.867 248.693 235.131C249.386 235.362 249.766 235.51 249.832 235.576C248.05 237.358 246.35 238.332 244.733 238.497C243.116 238.596 241.45 237.787 239.734 236.071C237.391 233.728 235.84 231.022 235.081 227.954C234.289 224.852 234.553 221.453 235.873 217.757C237.226 214.028 239.85 210.217 243.743 206.323C245.921 204.145 248.462 202 251.366 199.888C253.841 198.14 255.903 196.44 257.553 194.79C259.665 192.678 261.233 190.418 262.255 188.009C264.334 190.22 265.374 192.348 265.374 194.394C265.374 196.44 264.367 198.47 262.354 200.482C261.299 201.538 260.16 202.512 258.939 203.403C257.718 204.294 255.936 205.515 253.593 207.066L278.54 245.674L271.413 252.801L245.674 213.005ZM294.896 229.713C292.454 232.155 289.897 233.459 287.224 233.624C284.551 233.789 281.862 232.518 279.156 229.812C276.912 227.569 274.883 224.615 273.068 220.952C271.253 217.29 270.379 213.445 270.445 209.419C270.478 205.361 272.045 201.78 275.147 198.679C279.371 194.455 284.122 194.983 289.402 200.262L289.452 200.312C289.584 200.246 289.782 200.081 290.046 199.817C291.135 198.728 292.108 197.194 292.966 195.214C293.791 193.201 294.368 191.204 294.698 189.224L296.48 190.115C296.546 192.095 296.167 194.224 295.342 196.501C294.517 198.712 293.345 200.873 291.828 202.985C294.566 206.252 296.513 209.551 297.668 212.884C298.823 216.217 299.153 219.352 298.658 222.289C298.163 225.226 296.909 227.701 294.896 229.713ZM292.421 223.279C293.213 222.487 293.56 221.249 293.461 219.566C293.329 217.851 292.784 215.92 291.828 213.775C290.838 211.597 289.518 209.419 287.868 207.242C286.779 207.935 285.64 207.687 284.452 206.499C283.099 205.146 282.72 203.744 283.314 202.292C282.159 201.269 281.252 200.691 280.592 200.559C279.899 200.394 279.222 200.642 278.562 201.302C277.473 202.391 277.209 204.239 277.77 206.846C278.331 209.452 279.404 212.175 280.988 215.013C282.571 217.851 284.205 220.111 285.888 221.794C287.472 223.378 288.726 224.269 289.65 224.467C290.541 224.632 291.465 224.236 292.421 223.279ZM316.5 208.308C314.091 210.717 311.583 211.971 308.976 212.07C306.336 212.136 303.663 210.816 300.957 208.11C298.681 205.833 296.618 202.88 294.77 199.25C292.922 195.62 292.015 191.809 292.048 187.816C292.048 183.79 293.599 180.227 296.701 177.125C300.331 173.495 303.729 173.264 306.897 176.432C308.745 178.28 309.917 180.507 310.411 183.114C310.906 185.721 310.758 188.377 309.966 191.083C309.141 193.756 307.805 196.148 305.957 198.26C306.617 199.052 307.079 199.58 307.343 199.844C310.082 202.583 312.474 202.929 314.52 200.883C315.444 199.96 316.186 198.722 316.747 197.171C317.308 195.62 317.638 194.036 317.737 192.419C321.73 198.194 321.317 203.49 316.5 208.308ZM303.927 195.538C305.148 194.251 305.907 192.667 306.204 190.786C306.534 188.872 306.419 186.975 305.858 185.094C305.297 183.147 304.34 181.497 302.987 180.144C301.634 178.791 300.545 178.527 299.72 179.352C298.565 180.507 298.466 182.718 299.423 185.985C300.38 189.186 301.881 192.37 303.927 195.538Z" fill="#DADBBD"/>
<line x1="32.7678" y1="37.7166" x2="46.9099" y2="51.8588" stroke="#DADBBD" stroke-width="5"/>
<line x1="32.7479" y1="51.3744" x2="46.89" y2="37.2322" stroke="#DADBBD" stroke-width="5"/>
<line x1="317.263" y1="461.231" x2="303.121" y2="447.089" stroke="#DADBBD" stroke-width="5"/>
<line x1="317.283" y1="447.574" x2="303.141" y2="461.716" stroke="#DADBBD" stroke-width="5"/>
<line x1="92.7678" y1="37.7166" x2="106.91" y2="51.8588" stroke="#DADBBD" stroke-width="5"/>
<line x1="92.7479" y1="51.3744" x2="106.89" y2="37.2322" stroke="#DADBBD" stroke-width="5"/>
<line x1="257.263" y1="461.287" x2="243.121" y2="447.145" stroke="#DADBBD" stroke-width="5"/>
<line x1="257.283" y1="447.629" x2="243.141" y2="461.772" stroke="#DADBBD" stroke-width="5"/>
<line x1="152.768" y1="37.7166" x2="166.91" y2="51.8588" stroke="#DADBBD" stroke-width="5"/>
<line x1="152.748" y1="51.3744" x2="166.89" y2="37.2322" stroke="#DADBBD" stroke-width="5"/>
<line x1="197.263" y1="461.343" x2="183.121" y2="447.201" stroke="#DADBBD" stroke-width="5"/>
<line x1="197.283" y1="447.685" x2="183.141" y2="461.827" stroke="#DADBBD" stroke-width="5"/>
<line x1="212.768" y1="37.7166" x2="226.91" y2="51.8588" stroke="#DADBBD" stroke-width="5"/>
<line x1="212.748" y1="51.3744" x2="226.89" y2="37.2322" stroke="#DADBBD" stroke-width="5"/>
<line x1="137.263" y1="461.399" x2="123.121" y2="447.257" stroke="#DADBBD" stroke-width="5"/>
<line x1="137.283" y1="447.741" x2="123.141" y2="461.883" stroke="#DADBBD" stroke-width="5"/>
<line x1="272.768" y1="37.7166" x2="286.91" y2="51.8588" stroke="#DADBBD" stroke-width="5"/>
<line x1="272.748" y1="51.3744" x2="286.89" y2="37.2322" stroke="#DADBBD" stroke-width="5"/>
<line x1="77.2628" y1="461.455" x2="63.1206" y2="447.313" stroke="#DADBBD" stroke-width="5"/>
<line x1="77.2827" y1="447.797" x2="63.1405" y2="461.939" stroke="#DADBBD" stroke-width="5"/>
<path fill-rule="evenodd" clip-rule="evenodd" d="M70 54C74.9706 54 79 49.9706 79 45C79 40.0294 74.9706 36 70 36C65.0294 36 61 40.0294 61 45C61 49.9706 65.0294 54 70 54ZM70 49.7647C72.6315 49.7647 74.7647 47.6315 74.7647 45C74.7647 42.3685 72.6315 40.2353 70 40.2353C67.3685 40.2353 65.2353 42.3685 65.2353 45C65.2353 47.6315 67.3685 49.7647 70 49.7647Z" fill="#DADBBD"/>
<path fill-rule="evenodd" clip-rule="evenodd" d="M280.032 444.976C275.061 444.976 271.032 449.006 271.032 453.976C271.032 458.947 275.061 462.976 280.032 462.976C285.002 462.976 289.032 458.947 289.032 453.976C289.032 449.006 285.002 444.976 280.032 444.976ZM280.032 449.211C277.4 449.211 275.267 451.345 275.267 453.976C275.267 456.608 277.4 458.741 280.032 458.741C282.663 458.741 284.796 456.608 284.796 453.976C284.796 451.345 282.663 449.211 280.032 449.211Z" fill="#DADBBD"/>
<path fill-rule="evenodd" clip-rule="evenodd" d="M130 54C134.971 54 139 49.9706 139 45C139 40.0294 134.971 36 130 36C125.029 36 121 40.0294 121 45C121 49.9706 125.029 54 130 54ZM130 49.7647C132.631 49.7647 134.765 47.6315 134.765 45C134.765 42.3685 132.631 40.2353 130 40.2353C127.369 40.2353 125.235 42.3685 125.235 45C125.235 47.6315 127.369 49.7647 130 49.7647Z" fill="#DADBBD"/>
<path fill-rule="evenodd" clip-rule="evenodd" d="M220.032 445.032C215.061 445.032 211.032 449.061 211.032 454.032C211.032 459.002 215.061 463.032 220.032 463.032C225.002 463.032 229.032 459.002 229.032 454.032C229.032 449.061 225.002 445.032 220.032 445.032ZM220.032 449.267C217.4 449.267 215.267 451.4 215.267 454.032C215.267 456.663 217.4 458.797 220.032 458.797C222.663 458.797 224.796 456.663 224.796 454.032C224.796 451.4 222.663 449.267 220.032 449.267Z" fill="#DADBBD"/>
<path fill-rule="evenodd" clip-rule="evenodd" d="M190 54C194.971 54 199 49.9706 199 45C199 40.0294 194.971 36 190 36C185.029 36 181 40.0294 181 45C181 49.9706 185.029 54 190 54ZM190 49.7647C192.631 49.7647 194.765 47.6315 194.765 45C194.765 42.3685 192.631 40.2353 190 40.2353C187.369 40.2353 185.235 42.3685 185.235 45C185.235 47.6315 187.369 49.7647 190 49.7647Z" fill="#DADBBD"/>
<path fill-rule="evenodd" clip-rule="evenodd" d="M160.032 445.088C155.061 445.088 151.032 449.117 151.032 454.088C151.032 459.058 155.061 463.088 160.032 463.088C165.002 463.088 169.032 459.058 169.032 454.088C169.032 449.117 165.002 445.088 160.032 445.088ZM160.032 449.323C157.4 449.323 155.267 451.456 155.267 454.088C155.267 456.719 157.4 458.852 160.032 458.852C162.663 458.852 164.796 456.719 164.796 454.088C164.796 451.456 162.663 449.323 160.032 449.323Z" fill="#DADBBD"/>
<path fill-rule="evenodd" clip-rule="evenodd" d="M250 54C254.971 54 259 49.9706 259 45C259 40.0294 254.971 36 250 36C245.029 36 241 40.0294 241 45C241 49.9706 245.029 54 250 54ZM250 49.7647C252.631 49.7647 254.765 47.6315 254.765 45C254.765 42.3685 252.631 40.2353 250 40.2353C247.369 40.2353 245.235 42.3685 245.235 45C245.235 47.6315 247.369 49.7647 250 49.7647Z" fill="#DADBBD"/>
<path fill-rule="evenodd" clip-rule="evenodd" d="M100.032 445.144C95.0612 445.144 91.0318 449.173 91.0318 454.144C91.0318 459.114 95.0612 463.144 100.032 463.144C105.002 463.144 109.032 459.114 109.032 454.144C109.032 449.173 105.002 445.144 100.032 445.144ZM100.032 449.379C97.4003 449.379 95.2671 451.512 95.2671 454.144C95.2671 456.775 97.4003 458.908 100.032 458.908C102.663 458.908 104.797 456.775 104.797 454.144C104.797 451.512 102.663 449.379 100.032 449.379Z" fill="#DADBBD"/>
<path fill-rule="evenodd" clip-rule="evenodd" d="M310 54C314.971 54 319 49.9706 319 45C319 40.0294 314.971 36 310 36C305.029 36 301 40.0294 301 45C301 49.9706 305.029 54 310 54ZM310 49.7647C312.631 49.7647 314.765 47.6315 314.765 45C314.765 42.3685 312.631 40.2353 310 40.2353C307.369 40.2353 305.235 42.3685 305.235 45C305.235 47.6315 307.369 49.7647 310 49.7647Z" fill="#DADBBD"/>
<path fill-rule="evenodd" clip-rule="evenodd" d="M40.0318 445.199C35.0612 445.199 31.0318 449.229 31.0318 454.199C31.0318 459.17 35.0612 463.199 40.0318 463.199C45.0024 463.199 49.0318 459.17 49.0318 454.199C49.0318 449.229 45.0024 445.199 40.0318 445.199ZM40.0318 449.435C37.4003 449.435 35.2671 451.568 35.2671 454.199C35.2671 456.831 37.4003 458.964 40.0318 458.964C42.6633 458.964 44.7965 456.831 44.7965 454.199C44.7965 451.568 42.6633 449.435 40.0318 449.435Z" fill="#DADBBD"/>
</svg>
