<svg width="150" height="200" viewBox="0 0 150 200" fill="none" xmlns="http://www.w3.org/2000/svg">
<rect x="0.5" y="0.5" width="149" height="199" rx="9.5" fill="#B4FE98" stroke="black"/>
<path d="M53.1678 136.221C51.8361 137.553 50.522 138.195 49.2257 138.148C47.9293 138.101 46.5033 137.3 44.9477 135.744C43.7102 134.507 42.5848 132.969 41.5712 131.13C40.5695 129.28 40.0215 127.388 39.9272 125.456C39.8329 123.499 40.4988 121.808 41.9248 120.382C42.8087 119.498 43.7161 118.98 44.6472 118.826C45.5782 118.673 46.4444 118.997 47.2458 119.799C47.7525 120.305 48.0531 120.806 48.1473 121.301C48.2298 121.784 48.059 122.238 47.6347 122.662C47.2104 123.087 46.7213 123.269 46.1674 123.21C46.2735 122.892 46.2499 122.492 46.0967 122.008C45.9435 121.525 45.696 121.113 45.3543 120.771C45.0361 120.453 44.6884 120.282 44.3113 120.258C43.9459 120.223 43.5747 120.394 43.1976 120.771C42.573 121.396 42.408 122.421 42.7026 123.847C42.9855 125.261 43.5983 126.793 44.5411 128.443C45.4957 130.081 46.574 131.501 47.7761 132.703C48.6718 133.599 49.5085 134.129 50.2863 134.294C51.0642 134.459 51.8538 134.141 52.6551 133.34C53.3505 132.644 53.8395 131.849 54.1224 130.953C54.4052 130.058 54.4759 129.115 54.3345 128.125L54.9179 127.895C55.3657 128.932 55.5484 129.987 55.4659 131.059C55.3834 132.132 55.13 133.116 54.7058 134.012C54.2697 134.895 53.7571 135.632 53.1678 136.221ZM59.3209 129.715C58.7552 130.28 58.1188 130.563 57.4117 130.563C56.7164 130.551 56.0151 130.192 55.308 129.485C55.0134 129.19 54.6775 128.76 54.3004 128.194L47.3354 117.446L49.5982 114.476L57.1112 126.055C57.2408 126.279 57.4058 126.491 57.6061 126.692C57.8418 126.927 58.0658 127.045 58.2779 127.045C58.49 127.022 58.7257 126.88 58.985 126.621C59.3268 126.279 59.5035 125.82 59.5153 125.242C59.5153 124.653 59.3503 124.064 59.0203 123.474L59.7628 122.732C60.5996 124.441 60.906 125.867 60.682 127.01C60.4463 128.141 59.9926 129.043 59.3209 129.715ZM55.3363 113.9C54.9474 114.289 54.4819 114.484 53.9398 114.484C53.3977 114.484 52.9322 114.289 52.5433 113.9C52.1544 113.511 51.9599 113.046 51.9599 112.504C51.9481 111.95 52.1367 111.478 52.5256 111.089C52.9145 110.7 53.3859 110.512 53.9398 110.524C54.4937 110.512 54.9651 110.7 55.354 111.089C55.7429 111.478 55.9315 111.95 55.9197 112.504C55.9197 113.046 55.7253 113.511 55.3363 113.9ZM64.0338 125.002C63.4681 125.567 62.8317 125.85 62.1246 125.85C61.4293 125.838 60.728 125.479 60.0209 124.772C59.7263 124.477 59.3904 124.047 59.0133 123.481L54.5409 116.605L57.0864 114.059L61.8241 121.342C61.9537 121.566 62.1187 121.778 62.319 121.979C62.5547 122.215 62.7786 122.332 62.9908 122.332C63.2029 122.309 63.4386 122.167 63.6979 121.908C64.0397 121.566 64.2164 121.107 64.2282 120.529C64.2282 119.94 64.0632 119.351 63.7332 118.762L64.4757 118.019C65.3124 119.728 65.6189 121.154 65.3949 122.297C65.1592 123.428 64.7055 124.33 64.0338 125.002ZM58.7411 111.096L61.2867 108.551L62.3297 110.16C62.4122 109.064 62.8482 108.121 63.6378 107.331C64.2978 106.671 65.0402 106.365 65.8652 106.412C66.6902 106.459 67.5976 106.978 68.5876 107.967C69.5186 108.899 70.3259 109.977 71.0094 111.203C71.6812 112.416 72.0288 113.683 72.0524 115.003C72.0642 116.311 71.5397 117.496 70.4791 118.556C69.7248 119.311 69.0118 119.599 68.3401 119.423L71.7342 124.655L69.7013 127.961L58.7411 111.096ZM68.3931 117.566C68.9588 117.001 69.1591 116.27 68.9941 115.374C68.8409 114.467 68.4815 113.565 67.9158 112.67C67.3501 111.751 66.7491 110.973 66.1127 110.336C65.1345 109.358 64.3508 109.164 63.7616 109.753C63.5494 109.965 63.408 110.26 63.3373 110.637C63.2784 111.002 63.3019 111.403 63.408 111.839L67.3148 117.832C67.6801 118.008 68.0396 117.92 68.3931 117.566ZM77.6168 111.419C76.8155 112.22 76.0082 112.638 75.195 112.674C74.37 112.697 73.5981 112.35 72.8792 111.631C72.5257 111.277 72.231 110.9 71.9953 110.499L65.0303 99.7514L67.2931 96.7815L70.422 101.608C70.5517 101.077 70.6931 100.677 70.8463 100.405C70.9877 100.123 71.1645 99.8751 71.3766 99.663C72.7673 98.2724 74.4702 98.5847 76.4855 100.6C77.2986 101.413 78.0116 102.444 78.6245 103.694C79.2373 104.919 79.5084 106.227 79.4376 107.618C79.3787 108.997 78.7718 110.264 77.6168 111.419ZM76.8921 108.714C77.2574 108.349 77.3752 107.783 77.2456 107.017C77.1042 106.239 76.7919 105.42 76.3087 104.56C75.8137 103.688 75.2539 102.939 74.6293 102.315C74.1579 101.843 73.6747 101.525 73.1797 101.36C72.6848 101.195 72.29 101.26 71.9953 101.555C71.8186 101.731 71.6477 101.961 71.4827 102.244C71.3177 102.503 71.247 102.727 71.2706 102.916L74.7884 108.378C74.8945 108.555 75.0123 108.708 75.142 108.838C75.6841 109.38 76.2674 109.339 76.8921 108.714ZM85.6661 103.299C84.794 104.171 83.8807 104.636 82.9261 104.695C81.9715 104.754 81.011 104.3 80.0446 103.334C79.2432 102.533 78.5184 101.478 77.8703 100.17C77.2221 98.8616 76.9098 97.4886 76.9334 96.0508C76.9451 94.6012 77.5049 93.3226 78.6127 92.2148C80.1212 90.7063 81.8183 90.8948 83.7039 92.7804L83.7216 92.7981C83.7687 92.7746 83.8394 92.7156 83.9337 92.6213C84.3226 92.2324 84.6703 91.6844 84.9767 90.9773C85.2713 90.2584 85.4776 89.5454 85.5954 88.8383L86.2318 89.1565C86.2554 89.8636 86.1198 90.6238 85.8252 91.4369C85.5306 92.2265 85.1122 92.9985 84.5701 93.7527C85.5483 94.9194 86.2436 96.098 86.6561 97.2882C87.0685 98.4785 87.1864 99.5981 87.0096 100.647C86.8328 101.696 86.385 102.58 85.6661 103.299ZM84.7822 101.001C85.0651 100.718 85.1888 100.276 85.1535 99.6747C85.1063 99.0619 84.9119 98.3725 84.5701 97.6064C84.2166 96.8286 83.7451 96.0508 83.1559 95.273C82.767 95.5205 82.3604 95.4321 81.9361 95.0078C81.4529 94.5246 81.3174 94.0238 81.5295 93.5052C81.1171 93.1399 80.793 92.9336 80.5573 92.8865C80.3098 92.8276 80.0682 92.916 79.8325 93.1517C79.4436 93.5406 79.3493 94.2005 79.5496 95.1316C79.75 96.0626 80.133 97.0349 80.6987 98.0484C81.2644 99.0619 81.8477 99.8692 82.4488 100.47C83.0145 101.036 83.4623 101.354 83.7923 101.425C84.1105 101.484 84.4405 101.342 84.7822 101.001ZM93.0104 96.0251C92.3386 96.6969 91.549 97.0269 90.6416 97.0151C89.7341 97.0033 88.7913 96.5083 87.8131 95.5301C86.941 94.6581 86.1986 93.5738 85.5857 92.2775C84.9729 90.9575 84.6783 89.6258 84.7019 88.2823C84.7254 86.9152 85.2145 85.7544 86.1691 84.7998C86.6523 84.3166 87.0942 84.0397 87.4949 83.969C87.8956 83.8982 88.2315 83.9984 88.5026 84.2695L88.6263 84.3932L87.8838 83.2618L90.4294 80.7163L95.167 87.9995C95.2967 88.2234 95.4617 88.4355 95.662 88.6359C96.1688 89.1426 96.6637 89.1544 97.1469 88.6712C97.4769 88.3412 97.6066 87.9052 97.5358 87.3631C97.4769 86.8092 97.2707 86.214 96.9171 85.5776L97.6596 84.8352C98.4963 86.544 98.8204 87.9523 98.6319 89.0601C98.4433 90.1444 98.0249 91.0106 97.3767 91.6587C96.8818 92.1537 96.3456 92.4189 95.7681 92.4542C95.1906 92.466 94.6072 92.2362 94.018 91.7648C94.1594 92.5898 94.1712 93.3676 94.0533 94.0983C93.9355 94.8054 93.5878 95.4477 93.0104 96.0251ZM92.4447 93.1613C92.7393 92.8667 92.8925 92.4425 92.9043 91.8885C92.9161 91.3111 92.7334 90.7277 92.3563 90.1385L89.2097 85.2948C89.0565 85.1416 88.8502 85.0532 88.5909 85.0296C88.3199 84.9943 88.0606 85.1003 87.8131 85.3478C87.3417 85.8192 87.1944 86.5204 87.3712 87.4515C87.5362 88.3707 87.9015 89.3253 88.4672 90.3152C89.0211 91.2934 89.5927 92.0771 90.1819 92.6664C90.7712 93.2556 91.2308 93.5503 91.5608 93.5503C91.9026 93.5385 92.1972 93.4088 92.4447 93.1613ZM92.4512 78.6945L94.9968 76.1489L95.863 77.4748C95.9101 76.7205 95.9985 76.09 96.1281 75.5832C96.2695 75.0647 96.5288 74.6169 96.9059 74.2397C97.2831 73.8626 97.7073 73.6976 98.1787 73.7448C98.6619 73.7801 99.0862 73.9805 99.4515 74.3458C99.7933 74.6876 99.9819 75.1001 100.017 75.5832C100.053 76.0664 99.8699 76.5084 99.4692 76.9091C99.2099 77.1683 98.9742 77.2862 98.7621 77.2626C98.55 77.2155 98.3025 77.0976 98.0196 76.9091C97.8311 76.7912 97.6838 76.7146 97.5777 76.6793C97.4716 76.6439 97.3715 76.6734 97.2772 76.7677C97.0297 77.0151 96.8706 77.2803 96.7999 77.5631C96.7292 77.8224 96.682 78.2113 96.6585 78.7299L101.962 86.8616L99.4162 89.4072L92.4512 78.6945ZM108.962 80.0738C108.29 80.7455 107.5 81.0755 106.593 81.0637C105.685 81.052 104.743 80.557 103.764 79.5788C102.892 78.7067 102.15 77.6225 101.537 76.3261C100.924 75.0062 100.63 73.6745 100.653 72.331C100.677 70.9639 101.166 69.8031 102.12 68.8485C102.604 68.3653 103.046 68.0883 103.446 68.0176C103.847 67.9469 104.183 68.0471 104.454 68.3181L104.525 68.3889L101.325 63.4568L103.588 60.4869L111.101 72.0658C111.23 72.2897 111.378 72.4842 111.543 72.6492C112.014 73.1206 112.491 73.1147 112.975 72.6315C113.187 72.4194 113.34 72.1954 113.434 71.9597C113.976 72.5961 114.218 73.262 114.159 73.9573C114.1 74.6291 113.817 75.2183 113.31 75.7251C112.839 76.1965 112.32 76.4793 111.755 76.5736C111.189 76.6443 110.606 76.4852 110.005 76.0963C110.276 77.7816 109.928 79.1074 108.962 80.0738ZM108.396 77.21C108.655 76.9507 108.803 76.5795 108.838 76.0963C108.885 75.6013 108.773 75.0887 108.502 74.5584L108.29 74.2048L105.108 69.2904C104.589 68.984 104.142 69.0194 103.764 69.3965C103.293 69.8679 103.146 70.5691 103.323 71.5001C103.488 72.4194 103.853 73.374 104.419 74.3639C104.972 75.3421 105.544 76.1258 106.133 76.715C106.723 77.3043 107.182 77.5989 107.512 77.5989C107.854 77.5871 108.149 77.4575 108.396 77.21Z" fill="black"/>
<path d="M25 40C33.2843 40 40 33.2843 40 25C40 16.7157 33.2843 10 25 10C16.7157 10 10 16.7157 10 25C10 33.2843 16.7157 40 25 40Z" stroke="black" stroke-width="3"/>
<path d="M30.995 30.995C27.6841 34.3059 22.3159 34.3059 19.0049 30.995C15.694 27.684 15.694 22.3158 19.0049 19.0049C22.3159 15.6939 27.6841 15.6939 30.995 19.0049" stroke="black" stroke-width="3" stroke-linecap="round"/>
<path d="M125 190C133.284 190 140 183.284 140 175C140 166.716 133.284 160 125 160C116.716 160 110 166.716 110 175C110 183.284 116.716 190 125 190Z" stroke="black" stroke-width="3"/>
<path d="M130.995 180.995C127.684 184.306 122.316 184.306 119.005 180.995C115.694 177.684 115.694 172.316 119.005 169.005C122.316 165.694 127.684 165.694 130.995 169.005" stroke="black" stroke-width="3" stroke-linecap="round"/>
</svg>
