<svg width="150" height="200" viewBox="0 0 150 200" fill="none" xmlns="http://www.w3.org/2000/svg">
<rect x="0.5" y="0.5" width="149" height="199" rx="9.5" fill="#B4FE98" stroke="black"/>
<path d="M51.3723 137.502C50.2999 138.574 49.1921 139.093 48.0489 139.057C46.9175 139.01 45.904 138.539 45.0083 137.643C44.3719 137.007 43.8652 136.241 43.4881 135.345C43.1109 134.426 42.9283 133.477 42.9401 132.499C42.9518 131.521 43.2052 130.619 43.7002 129.794C43.0756 129.9 42.4922 129.859 41.9501 129.67C41.3962 129.47 40.913 129.164 40.5005 128.751C39.8877 128.138 39.4517 127.372 39.1924 126.453C38.9449 125.522 38.9331 124.579 39.157 123.625C39.3809 122.647 39.8524 121.798 40.5712 121.079C41.3137 120.337 42.1151 119.924 42.9754 119.842C43.8357 119.759 44.6135 120.066 45.3089 120.761C45.8274 121.279 46.1338 121.845 46.2281 122.458C46.3224 123.071 46.1927 123.554 45.8392 123.908C45.521 124.226 45.0849 124.344 44.531 124.261C44.6725 123.978 44.6607 123.601 44.4957 123.13C44.3307 122.658 44.0891 122.264 43.7709 121.945C43.4291 121.604 43.0874 121.45 42.7456 121.486C42.392 121.509 42.0797 121.657 41.8087 121.928C41.4669 122.269 41.2784 122.705 41.243 123.236C41.2076 123.743 41.3078 124.267 41.5435 124.809C41.7674 125.339 42.0856 125.811 42.4981 126.223C43.0638 126.789 43.712 127.143 44.4427 127.284C45.1615 127.414 45.8981 127.255 46.6524 126.807C46.181 127.537 45.9335 128.374 45.9099 129.317C45.8863 130.26 46.0454 131.173 46.3872 132.057C46.7172 132.929 47.1591 133.642 47.713 134.196C48.2434 134.726 48.809 135.021 49.4101 135.08C50.0229 135.127 50.6122 134.868 51.1778 134.302C51.7671 133.713 52.2208 132.941 52.539 131.986C52.8572 131.008 52.8926 130.089 52.6451 129.229L53.2285 128.999C53.7824 130.472 53.8825 131.986 53.529 133.542C53.1754 135.098 52.4565 136.417 51.3723 137.502ZM58.0188 130.431C57.3471 131.103 56.5575 131.433 55.65 131.421C54.7426 131.409 53.7998 130.914 52.8216 129.936C51.9495 129.064 51.207 127.98 50.5942 126.683C49.9814 125.363 49.6868 124.032 49.7103 122.688C49.7339 121.321 50.223 120.16 51.1776 119.206C51.6608 118.722 52.1027 118.445 52.5034 118.375C52.9041 118.304 53.24 118.404 53.511 118.675L53.6348 118.799L52.8923 117.668L55.4379 115.122L60.1755 122.405C60.3051 122.629 60.4701 122.841 60.6705 123.042C61.1772 123.548 61.6722 123.56 62.1554 123.077C62.4854 122.747 62.615 122.311 62.5443 121.769C62.4854 121.215 62.2791 120.62 61.9256 119.983L62.6681 119.241C63.5048 120.95 63.8289 122.358 63.6403 123.466C63.4518 124.55 63.0334 125.416 62.3852 126.065C61.8902 126.559 61.354 126.825 60.7765 126.86C60.1991 126.872 59.6157 126.642 59.0265 126.171C59.1679 126.996 59.1797 127.773 59.0618 128.504C58.944 129.211 58.5963 129.853 58.0188 130.431ZM57.4531 127.567C57.7478 127.272 57.901 126.848 57.9128 126.294C57.9245 125.717 57.7419 125.133 57.3648 124.544L54.2181 119.701C54.0649 119.547 53.8587 119.459 53.5994 119.435C53.3284 119.4 53.0691 119.506 52.8216 119.754C52.3502 120.225 52.2029 120.926 52.3797 121.857C52.5446 122.776 52.91 123.731 53.4757 124.721C54.0296 125.699 54.6011 126.483 55.1904 127.072C55.7797 127.661 56.2393 127.956 56.5693 127.956C56.911 127.944 57.2057 127.815 57.4531 127.567ZM67.2177 121.232C66.652 121.798 66.0687 122.169 65.4676 122.346C64.8548 122.511 64.2832 122.517 63.7529 122.363C63.2108 122.198 62.7512 121.927 62.374 121.55C61.9851 121.161 61.7435 120.731 61.6492 120.26C61.5314 119.788 61.5373 119.358 61.6669 118.969C61.3016 117.685 60.8714 116.453 60.3765 115.275C59.8697 114.084 59.2804 112.847 58.6087 111.562L60.8714 108.592C62.4388 110.042 64.1713 111.574 66.0687 113.189C66.8347 113.837 67.3768 114.32 67.695 114.638C67.9661 114.909 68.1664 115.157 68.296 115.381C68.5317 114.509 68.6614 113.79 68.685 113.224L69.4274 112.482C69.5453 114.108 69.3803 115.746 68.9324 117.396C68.956 118.103 68.8028 118.798 68.4728 119.482C68.1428 120.142 67.7245 120.725 67.2177 121.232ZM65.2555 120.401C65.6915 119.965 65.9272 119.47 65.9626 118.916C65.9979 118.362 65.7269 117.797 65.1494 117.219C64.7959 116.866 64.2655 116.406 63.5584 115.84C62.0971 114.615 61.1189 113.79 60.6239 113.365C61.2721 114.579 61.9085 116.17 62.5331 118.138C62.9456 118.009 63.2874 118.08 63.5584 118.351C63.7823 118.574 63.9061 118.851 63.9297 119.181C63.965 119.5 63.8707 119.771 63.6468 119.995C63.3993 120.242 63.1636 120.325 62.9397 120.242C63.364 120.666 63.7588 120.896 64.1241 120.932C64.5012 120.955 64.8784 120.778 65.2555 120.401ZM79.0235 118.053C78.4578 118.619 77.8391 118.943 77.1673 119.025C76.4956 119.108 75.8828 118.872 75.3289 118.318C74.6571 117.646 74.386 116.833 74.5157 115.879C74.6571 114.936 75.0107 113.91 75.5763 112.803L74.8339 111.636C74.8692 112.355 74.7809 112.962 74.5687 113.457C74.3566 113.952 74.0679 114.382 73.7025 114.747C73.1368 115.313 72.5004 115.596 71.7933 115.596C71.098 115.584 70.3968 115.225 69.6897 114.517C69.3951 114.223 69.0592 113.793 68.6821 113.227L64.2096 106.35L66.7552 103.805L71.4928 111.088C71.5989 111.265 71.7285 111.43 71.8817 111.583C72.4003 112.101 72.8363 112.184 73.1899 111.83C73.4963 111.524 73.6377 111.123 73.6141 110.628C73.5788 110.122 73.4138 109.579 73.1191 109.002L68.576 101.984L71.1216 99.4384L77.5739 109.391C77.951 108.637 78.1219 107.9 78.0866 107.181C78.0512 106.462 77.7802 105.614 77.2734 104.636L78.0159 103.893C78.7465 105.26 79.0883 106.462 79.0412 107.499C78.9822 108.525 78.6994 109.467 78.1926 110.328L79.2003 111.866C80.1077 113.245 80.4848 114.435 80.3316 115.437C80.1902 116.45 79.7542 117.322 79.0235 118.053ZM77.238 117.081C77.4384 116.88 77.4973 116.55 77.4148 116.091C77.3323 115.631 77.0907 115.095 76.69 114.482L76.2835 113.863C75.5528 115.443 75.4762 116.521 76.0536 117.098C76.2068 117.252 76.3954 117.334 76.6193 117.346C76.8432 117.358 77.0495 117.269 77.238 117.081ZM82.9007 105.549C82.0993 106.35 81.292 106.769 80.4789 106.804C79.6539 106.828 78.882 106.48 78.1631 105.761C77.8095 105.408 77.5149 105.03 77.2792 104.63L70.3142 93.8818L72.5769 90.9119L75.7059 95.7379C75.8355 95.2076 75.9769 94.8069 76.1302 94.5358C76.2716 94.253 76.4484 94.0055 76.6605 93.7934C78.0511 92.4027 79.7541 92.715 81.7693 94.7303C82.5825 95.5435 83.2955 96.5747 83.9083 97.8239C84.5212 99.0495 84.7922 100.358 84.7215 101.748C84.6626 103.127 84.0556 104.394 82.9007 105.549ZM82.1759 102.844C82.5413 102.479 82.6591 101.913 82.5295 101.147C82.388 100.369 82.0757 99.5504 81.5926 98.6901C81.0976 97.818 80.5378 97.0696 79.9132 96.445C79.4418 95.9736 78.9586 95.6554 78.4636 95.4904C77.9686 95.3254 77.5738 95.3903 77.2792 95.6849C77.1024 95.8617 76.9315 96.0915 76.7666 96.3743C76.6016 96.6336 76.5308 96.8575 76.5544 97.0461L80.0723 102.508C80.1783 102.685 80.2962 102.838 80.4258 102.968C80.9679 103.51 81.5513 103.469 82.1759 102.844ZM90.5257 97.924C89.854 98.5958 89.0644 98.9258 88.1569 98.914C87.2495 98.9022 86.3066 98.4072 85.3285 97.429C84.4564 96.5569 83.7139 95.4727 83.1011 94.1764C82.4883 92.8564 82.1936 91.5247 82.2172 90.1812C82.2408 88.8141 82.7299 87.6533 83.6845 86.6987C84.1676 86.2155 84.6096 85.9386 85.0103 85.8678C85.411 85.7971 85.7469 85.8973 86.0179 86.1684L86.1417 86.2921L85.3992 85.1607L87.9448 82.6152L92.6824 89.8984C92.812 90.1223 92.977 90.3344 93.1774 90.5348C93.6841 91.0415 94.1791 91.0533 94.6623 90.5701C94.9923 90.2401 95.1219 89.8041 95.0512 89.262C94.9923 88.7081 94.786 88.1129 94.4325 87.4765L95.1749 86.7341C96.0117 88.4429 96.3358 89.8512 96.1472 90.959C95.9587 92.0432 95.5403 92.9095 94.8921 93.5576C94.3971 94.0526 93.8609 94.3178 93.2834 94.3531C92.706 94.3649 92.1226 94.1351 91.5333 93.6637C91.6748 94.4887 91.6865 95.2665 91.5687 95.9972C91.4508 96.7043 91.1032 97.3465 90.5257 97.924ZM89.96 95.0602C90.2547 94.7656 90.4079 94.3413 90.4196 93.7874C90.4314 93.21 90.2488 92.6266 89.8716 92.0374L86.725 87.1937C86.5718 87.0405 86.3656 86.9521 86.1063 86.9285C85.8352 86.8932 85.576 86.9992 85.3285 87.2467C84.8571 87.7181 84.7098 88.4193 84.8865 89.3503C85.0515 90.2696 85.4169 91.2242 85.9826 92.2141C86.5365 93.1923 87.108 93.976 87.6973 94.5653C88.2865 95.1545 88.7462 95.4491 89.0761 95.4491C89.4179 95.4374 89.7125 95.3077 89.96 95.0602ZM104.091 84.3588C103.372 85.0776 102.653 85.4194 101.934 85.3841C101.215 85.3251 100.573 85.0128 100.007 84.4471C99.7599 84.1997 99.5125 83.8932 99.265 83.5279C99.0057 83.1508 98.7582 82.7854 98.5225 82.4319C98.2986 82.0666 98.1572 81.8308 98.0982 81.7248C97.7801 81.218 97.4619 80.723 97.1437 80.2399C96.8255 79.7567 96.5426 79.3913 96.2951 79.1438C95.6941 78.5428 95.1814 78.4544 94.7572 78.8787C94.4508 79.1851 94.3329 79.6094 94.4036 80.1515C94.4625 80.6818 94.6629 81.2593 95.0047 81.8839L99.4771 88.7605L96.9315 91.3061L89.9665 80.5934L92.5121 78.0478L93.2369 79.1615C93.1662 77.9123 93.5256 76.8929 94.3152 76.1033C94.9163 75.5022 95.5586 75.1899 96.2421 75.1664C96.9256 75.1428 97.6033 75.4669 98.275 76.1386C98.6168 76.4804 98.9586 76.9047 99.3003 77.4114C99.6303 77.9064 100.019 78.531 100.467 79.2853C100.738 79.7449 101.009 80.1927 101.28 80.6288C101.551 81.0412 101.787 81.3477 101.987 81.548C102.223 81.7837 102.459 81.9133 102.694 81.9369C102.93 81.9605 103.178 81.8426 103.437 81.5834C103.79 81.2298 103.95 80.8232 103.914 80.3636C103.867 79.8922 103.684 79.2853 103.366 78.5428L104.109 77.8003C104.969 79.5328 105.334 80.9116 105.205 81.9369C105.075 82.9386 104.704 83.7459 104.091 84.3588ZM113.281 75.1684C112.551 75.8991 111.826 76.2821 111.107 76.3175C110.376 76.3411 109.687 76.0288 109.039 75.3806C108.756 75.0977 108.485 74.756 108.225 74.3553L107.677 73.5244C107.524 73.2769 107.33 73.0353 107.094 72.7996C106.528 72.2339 106.033 72.1632 105.609 72.5875C105.421 72.7761 105.273 73.0294 105.167 73.3476C105.073 73.6541 105.002 74.0547 104.955 74.5497L108.402 79.8353L105.857 82.3809L96.3991 67.7969L98.6619 64.827L103.559 72.3754L104.283 66.2766L106.033 64.5265L104.955 70.5192C105.085 70.2953 105.256 70.0773 105.468 69.8651C106.104 69.2287 106.782 68.94 107.501 68.9989C108.22 69.0579 108.88 69.3878 109.481 69.9889C109.728 70.2364 109.928 70.4839 110.082 70.7313L110.771 71.8097C110.924 72.0807 111.083 72.2988 111.248 72.4638C111.684 72.8998 112.132 72.888 112.592 72.4284C112.851 72.1691 112.998 71.9865 113.034 71.8804C113.069 71.7743 113.093 71.7154 113.105 71.7036C113.47 72.1161 113.688 72.558 113.759 73.0294C113.841 73.4891 113.823 73.9192 113.706 74.3199C113.599 74.7088 113.458 74.9917 113.281 75.1684Z" fill="black"/>
<path fill-rule="evenodd" clip-rule="evenodd" d="M20.802 10L10 29.704H15.986L26.789 10L20.802 10Z" fill="url(#paint0_linear_47_191)"/>
<path opacity="0.5" fill-rule="evenodd" clip-rule="evenodd" d="M28.171 10L17.368 29.704H23.354L34.157 10L28.171 10Z" fill="url(#paint1_linear_47_191)"/>
<path opacity="0.15" fill-rule="evenodd" clip-rule="evenodd" d="M35.539 10L24.737 29.704H30.723L41.525 10L35.539 10Z" fill="url(#paint2_linear_47_191)"/>
<path fill-rule="evenodd" clip-rule="evenodd" d="M118.802 170L108 189.704H113.986L124.789 170H118.802Z" fill="url(#paint3_linear_47_191)"/>
<path opacity="0.5" fill-rule="evenodd" clip-rule="evenodd" d="M126.171 170L115.368 189.704H121.354L132.157 170H126.171Z" fill="url(#paint4_linear_47_191)"/>
<path opacity="0.15" fill-rule="evenodd" clip-rule="evenodd" d="M133.539 170L122.737 189.704H128.723L139.525 170H133.539Z" fill="url(#paint5_linear_47_191)"/>
<defs>
<linearGradient id="paint0_linear_47_191" x1="22.1208" y1="10" x2="10.4844" y2="28.1287" gradientUnits="userSpaceOnUse">
<stop/>
<stop offset="1" stop-color="#6F6F6F"/>
</linearGradient>
<linearGradient id="paint1_linear_47_191" x1="29.4888" y1="10" x2="17.8524" y2="28.1287" gradientUnits="userSpaceOnUse">
<stop/>
<stop offset="1" stop-color="#6F6F6F"/>
</linearGradient>
<linearGradient id="paint2_linear_47_191" x1="36.8571" y1="10" x2="25.2204" y2="28.1281" gradientUnits="userSpaceOnUse">
<stop/>
<stop offset="1" stop-color="#6F6F6F"/>
</linearGradient>
<linearGradient id="paint3_linear_47_191" x1="120.121" y1="170" x2="108.484" y2="188.129" gradientUnits="userSpaceOnUse">
<stop/>
<stop offset="1" stop-color="#6F6F6F"/>
</linearGradient>
<linearGradient id="paint4_linear_47_191" x1="127.489" y1="170" x2="115.852" y2="188.129" gradientUnits="userSpaceOnUse">
<stop/>
<stop offset="1" stop-color="#6F6F6F"/>
</linearGradient>
<linearGradient id="paint5_linear_47_191" x1="134.857" y1="170" x2="123.22" y2="188.128" gradientUnits="userSpaceOnUse">
<stop/>
<stop offset="1" stop-color="#6F6F6F"/>
</linearGradient>
</defs>
</svg>
