<svg width="50" height="38" viewBox="0 0 50 38" fill="none" xmlns="http://www.w3.org/2000/svg">
<path d="M45.3125 0C47.9004 0 50 2.09863 50 4.6875C50 6.16211 49.3066 7.54883 48.125 8.4375L26.875 24.375C25.7617 25.2051 24.2383 25.2051 23.125 24.375L1.875 8.4375C0.694629 7.54883 0 6.16211 0 4.6875C0 2.09863 2.09863 0 4.6875 0H45.3125ZM21.25 26.875C23.4766 28.5449 26.5234 28.5449 28.75 26.875L50 10.9375V31.25C50 34.6973 47.1973 37.5 43.75 37.5H6.25C2.79785 37.5 0 34.6973 0 31.25V10.9375L21.25 26.875Z" fill="#F4F4F4"/>
</svg>
